<svg height="512pt" viewBox="-18 0 512 512" width="512pt" xmlns="http://www.w3.org/2000/svg"><path d="m191.964844 315.273438v-237.175782c0-43.0625-35.035156-78.097656-78.097656-78.097656s-78.101563 35.035156-78.101563 78.097656v237.171875c-23.261719 21.898438-36.210937 52.308594-35.7539062 84.515625.4218752 29.675782 12.2968752 57.65625 33.4375002 78.789063 21.140625 21.132812 49.125 33 78.800781 33.414062.539062.007813 1.082031.011719 1.617188.011719h.003906c30.414062 0 59.007812-11.84375 80.511718-33.351562 21.507813-21.503907 33.351563-50.097657 33.351563-80.515626 0-31.5625-12.949219-61.371093-35.769531-82.859374zm0 0" fill="#f3eee9"/><path d="m191.964844 315.273438v-237.175782c0-43.0625-35.035156-78.097656-78.097656-78.097656v512h.003906c30.414062 0 59.007812-11.84375 80.511718-33.351562 21.507813-21.503907 33.351563-50.097657 33.351563-80.515626 0-31.5625-12.949219-61.371093-35.769531-82.859374zm0 0" fill="#e9dfda"/><path d="m475.109375 180.007812v-30.011718h-41.375c-2.210937-12.421875-7.101563-23.921875-14.066406-33.878906l29.277343-29.28125-21.222656-21.222657-29.277344 29.28125c-9.960937-6.964843-21.460937-11.859375-33.882812-14.066406v-41.375h-30.011719v41.375c-12.421875 2.207031-23.921875 7.101563-33.882812 14.066406l-29.277344-29.28125-21.222656 21.222657 29.28125 29.28125c-6.964844 9.957031-11.859375 21.457031-14.066407 33.878906h-41.375v30.011718h41.375c2.207032 12.421876 7.101563 23.921876 14.066407 33.882813l-29.28125 29.28125 21.222656 21.21875 29.277344-29.277344c9.960937 6.964844 21.460937 11.855469 33.882812 14.066407v41.375h30.011719v-41.375c12.421875-2.210938 23.921875-7.101563 33.882812-14.066407l29.277344 29.277344 21.222656-21.21875-29.277343-29.28125c6.964843-9.960937 11.855469-21.460937 14.066406-33.882813zm0 0" fill="#ffdc00"/><path d="m128.875 345.210938v-266.410157h-30.015625v266.410157c-23.0625 6.546874-40.011719 27.789062-40.011719 52.921874 0 30.339844 24.679688 55.023438 55.019532 55.023438 30.339843 0 55.023437-24.683594 55.023437-55.023438-.003906-25.132812-16.953125-46.375-40.015625-52.921874zm0 0" fill="#ff1f3e"/><path d="m128.875 345.210938v-266.410157h-15.007812v374.355469c30.339843 0 55.023437-24.683594 55.023437-55.023438-.003906-25.132812-16.953125-46.375-40.015625-52.921874zm0 0" fill="#bf0114"/><path d="m475.109375 180.007812v-30.011718h-41.375c-2.210937-12.421875-7.101563-23.921875-14.066406-33.878906l29.277343-29.28125-21.222656-21.222657-29.277344 29.28125c-9.960937-6.964843-21.460937-11.859375-33.882812-14.066406v-41.375h-15.003906v251.101563h15.003906v-41.375c12.421875-2.207032 23.921875-7.101563 33.882812-14.066407l29.277344 29.28125 21.222656-21.222656-29.277343-29.28125c6.964843-9.957031 11.855469-21.457031 14.066406-33.882813zm0 0" fill="#ffc000"/></svg>