<svg height="497pt" viewBox="0 -79 497.98208 497" width="497pt" xmlns="http://www.w3.org/2000/svg"><path d="m489.980469 61.3125c0 1.527344-.058594 3.039062-.1875 4.539062l-.109375-.011718h-30.472656c-.109376-1.289063-.167969-2.597656-.167969-3.917969-.035157-13.976563 6.59375-27.132813 17.847656-35.421875 8.453125 9.625 13.109375 22 13.089844 34.8125zm0 0" fill="#fedb41"/><path d="m489.683594 65.839844.109375.011718c-.976563 11.554688-5.75 22.464844-13.570313 31.03125l-.429687-.402343c-9.515625-7.488281-15.515625-18.578125-16.582031-30.640625zm0 0" fill="#fedb41"/><path d="m475.792969 96.480469.429687.402343c-10.003906 11.007813-24.195312 17.273438-39.070312 17.257813v-48.300781h22.058594c1.066406 12.0625 7.066406 23.152344 16.582031 30.640625zm0 0" fill="#00efd1"/><path d="m437.152344 8.492188c15.226562-.019532 29.714844 6.546874 39.738281 18.007812-11.253906 8.289062-17.882813 21.445312-17.847656 35.421875 0 1.320313.058593 2.628906.167969 3.917969h-22.058594zm0 0" fill="#00ceb4"/><path d="m437.152344 65.839844v48.300781c-15.480469.015625-30.183594-6.773437-40.210938-18.570313l.359375-.300781c8.648438-7.488281 14.054688-18.035156 15.082031-29.429687zm0 0" fill="#00ceb4"/><path d="m437.152344 8.640625v57.199219h-24.769532c.109376-1.289063.167969-2.597656.167969-3.917969 0-12.808594-5.5625-24.980469-15.25-33.359375l-.96875-.78125c10.027344-12.226562 25.007813-19.304688 40.820313-19.289062zm0 0" fill="#00efd1"/><path d="m412.550781 61.921875c0 1.320313-.058593 2.628906-.167969 3.917969h-27.75l-.121093.011718c-.128907-1.5-.191407-3.011718-.191407-4.539062-.019531-12.234375 4.226563-24.09375 12.011719-33.53125l.96875.78125c9.6875 8.378906 15.25 20.550781 15.25 33.359375zm0 0" fill="#fedb41"/><path d="m384.632812 65.839844h27.75c-1.027343 11.394531-6.433593 21.941406-15.082031 29.429687l-.359375.300781c-7.152344-8.359374-11.5-18.753906-12.429687-29.71875zm0 0" fill="#fedb41"/><path d="m335.972656 40.070312 47.890625 115.5-30.601562 12.691407-6.351563-15.300781-35.199218-84.910157-6.339844-15.300781zm0 0" fill="#00acea"/><path d="m91.792969 145.140625 63.390625-22.21875 156.527344-54.871094 35.199218 84.910157-85.609375 41.238281-.207031.242187c-23.234375-20.824218-56.542969-26.039062-85.027344-13.316406-28.488281 12.722656-46.832031 41.007812-46.835937 72.207031 0 1.488281.042969 2.960938.121093 4.429688l-20.359374 9.808593c-7.589844 3.660157-16.347657 4.03125-24.21875 1.027344-7.871094-3.003906-14.15625-9.113281-17.382813-16.898437l-21.527344-51.90625-1.542969-3.730469c-3.226562-7.78125-3.105468-16.550781.332032-24.238281 3.4375-7.691407 9.890625-13.628907 17.839844-16.414063zm0 0" fill="#fedb41"/><path d="m129.351562 257.761719c-.078124-1.46875-.121093-2.941407-.121093-4.429688.042969-43.199219 34.777343-78.355469 77.96875-78.917969 43.195312-.5625 78.835937 33.671876 80.003906 76.855469 1.167969 43.179688-32.5625 79.296875-75.722656 81.070313-43.164063 1.777344-79.746094-31.445313-82.128907-74.578125zm120.152344-4.429688c0-22.75-18.441406-41.191406-41.191406-41.191406s-41.191406 18.441406-41.191406 41.191406c0 22.746094 18.441406 41.1875 41.191406 41.1875 22.75.003907 41.191406-18.4375 41.191406-41.1875zm0 0" fill="#00efd1"/><path d="m249.503906 253.332031c0 22.746094-18.441406 41.1875-41.191406 41.1875s-41.191406-18.441406-41.191406-41.1875c0-22.75 18.441406-41.191406 41.191406-41.191406s41.191406 18.441406 41.191406 41.191406zm0 0" fill="#f4b844"/><path d="m149.890625 110.160156 5.292969 12.761719-63.390625 22.21875-3.859375-9.289063c-3.503906-8.449218.507812-18.140624 8.957031-21.640624l31.363281-13c4.054688-1.683594 8.613282-1.6875 12.671875-.011719 4.058594 1.679687 7.285157 4.902343 8.964844 8.960937zm0 0" fill="#00efd1"/><path d="m8.003906 215.484375 37.855469-15.695313 19.980469 48.191407-37.859375 15.695312zm0 0" fill="#00acea"/><g fill="#083863"><path d="m81.925781 276.074219c9.917969 3.824219 20.980469 3.355469 30.539063-1.300781l10.339844-4.980469c6.902343 35.886719 35.480468 63.644531 71.554687 69.503906s71.96875-11.429687 89.875-43.289063c17.90625-31.859374 14.015625-71.507812-9.742187-99.277343l68.277343-32.890625 3.109375 7.488281c.8125 1.960937 2.367188 3.515625 4.328125 4.328125 1.960938.8125 4.164063.808594 6.125-.003906l30.597657-12.691406c4.082031-1.691407 6.019531-6.371094 4.328124-10.453126l-47.890624-115.5c-1.691407-4.082031-6.371094-6.019531-10.453126-4.328124l-30.601562 12.679687c-4.082031 1.691406-6.019531 6.371094-4.328125 10.453125l3.101563 7.488281-141.410157 49.566407-2.390625-5.769532c-5.191406-12.53125-19.566406-18.476562-32.09375-13.277344l-31.359375 13c-12.53125 5.195313-18.480469 19.566407-13.285156 32.101563l.613281 1.46875-21.3125 7.46875c-19.476562 6.824219-30.15625 27.75-24.253906 47.527344l-30.65625 12.699219c-4.085938 1.691406-6.019531 6.375-4.324219 10.460937l19.980469 48.1875c1.691406 4.082031 6.371094 6.019531 10.453125 4.328125l30.660156-12.710938c4.371094 8.160157 11.554688 14.460938 20.21875 17.722657zm126.386719 48.335937c-37.707031.007813-68.859375-29.433594-70.972656-67.085937-.074219-1.335938-.109375-2.644531-.109375-4 .003906-28.039063 16.488281-53.460938 42.09375-64.898438s55.542969-6.75 76.425781 11.964844c21.949219 19.65625 29.496094 50.816406 18.96875 78.339844-10.527344 27.519531-36.941406 45.691406-66.40625 45.679687zm123.332031-273.886718 41.761719 100.726562-15.820312 6.5625-3.285157-7.910156-38.476562-92.816406zm-236.320312 82.265624c-1.8125-4.367187.261719-9.378906 4.632812-11.1875l31.363281-13c2.097657-.871093 4.453126-.871093 6.550782-.003906 2.097656.867188 3.761718 2.53125 4.632812 4.628906l2.046875 4.945313-48.273437 16.921875zm-43.367188 42.300782c2.515625-5.699219 7.292969-10.09375 13.179688-12.128906l242.085937-84.859376 29.398438 70.933594-74.472656 35.875c-26.125-20.570312-61.683594-24.464844-91.640626-10.035156-29.957031 14.429688-49.074218 44.664062-49.273437 77.914062l-15.71875 7.574219c-5.609375 2.703125-12.078125 2.976563-17.894531.757813-5.8125-2.21875-10.457032-6.734375-12.839844-12.484375l-21.523438-51.902344-1.546874-3.742187c-2.410157-5.742188-2.320313-12.226563.246093-17.902344zm-19.648437 78.128906-13.851563-33.410156 23.078125-9.566406 13.855469 33.410156zm0 0"/><path d="m208.3125 204.140625c-27.167969 0-49.191406 22.023437-49.191406 49.191406 0 27.164063 22.023437 49.1875 49.191406 49.1875s49.191406-22.023437 49.191406-49.1875c-.03125-27.15625-22.039062-49.160156-49.191406-49.191406zm0 82.378906c-18.332031 0-33.191406-14.859375-33.191406-33.1875 0-18.332031 14.859375-33.191406 33.191406-33.191406 18.328125 0 33.191406 14.859375 33.191406 33.191406-.023437 18.320313-14.871094 33.167969-33.191406 33.1875zm0 0"/><path d="m437.152344.492188c-33.59375-.003907-60.828125 27.226562-60.832032 60.820312 0 1.789062.074219 3.546875.222657 5.214844 2.71875 31.453125 29.039062 55.605468 60.609375 55.613281 17.117187-.015625 33.441406-7.226563 44.984375-19.871094 9.027343-9.84375 14.527343-22.414062 15.625-35.726562.144531-1.6875.21875-3.445313.21875-5.230469.003906-33.597656-27.234375-60.832031-60.828125-60.820312zm38.152344 84c-2.726563-3.277344-4.847657-7.015626-6.257813-11.042969h11.171875c-1.101562 3.898437-2.753906 7.617187-4.914062 11.039062zm-30.3125-27.042969v-40.222657c7.300781 1.3125 14.179687 4.359376 20.058593 8.882813-7.902343 8.660156-12.757812 19.667969-13.828125 31.339844zm-16 0h-8.617188c-.960938-11.128907-5.460938-21.660157-12.84375-30.046875 6.085938-5.296875 13.507812-8.820313 21.460938-10.1875zm-31.523438-17.363281c3.714844 5.117187 6.070312 11.089843 6.847656 17.363281h-11.851562c.484375-6.0625 2.1875-11.96875 5.003906-17.363281zm-3.375 33.363281h8.4375c-.957031 3.289062-2.554688 6.359375-4.691406 9.035156-1.730469-2.789063-2.996094-5.839844-3.746094-9.035156zm25.082031 0h9.816407v31.960937c-7.730469-1.40625-14.9375-4.878906-20.851563-10.050781 5.347656-6.335937 9.125-13.839844 11.035156-21.910156zm25.816407 0h7.421874c1.867188 8.65625 6.011719 16.65625 12 23.175781-5.695312 4.410156-12.347656 7.417969-19.421874 8.777344zm22.277343-16c.824219-7.160157 3.761719-13.917969 8.433594-19.40625 3.386719 5.96875 5.476563 12.578125 6.136719 19.40625zm0 0"/></g></svg>