<?xml version="1.0"?>
<svg xmlns="http://www.w3.org/2000/svg" viewBox="0 0 64 64" width="512" height="512"><path d="m2 49h60v13h-60z" fill="#b1d3ee"/><path d="m3.625 42.406 3.375 7.594 6 3h2l7-3h6l6 2 3 1h3l7-3 2-1-1-3 9.346 2.876c.059.018.113.048.171.068a9.054 9.054 0 0 0 .791-1.482l2.115-5.077a1 1 0 0 0 -.923-1.385h-54.961a1 1 0 0 0 -.914 1.406z" fill="#db4b40"/><path d="m50.397 49.811-6.084-5.916 1.374-1.455 6.083 5.916z" fill="#bfbfbf"/><path d="m7 16h17.2a6 6 0 0 0 -5.2-9c-.034 0-.067 0-.1 0a5 5 0 0 0 -9.9 1 4.944 4.944 0 0 0 .059.587 3.994 3.994 0 1 0 -2.059 7.413z" fill="#b1d3ee"/><path d="m60.985 8.283c.006-.093.015-.183.015-.283a4.992 4.992 0 0 0 -9.917-.826c-2.974.364-5.083 1.267-5.083 2.326 0 1.381 3.582 2.5 8 2.5s8-1.119 8-2.5c0-.442-.371-.857-1.015-1.217z" fill="#b1d3ee"/><path d="m40.06 24.545a5.005 5.005 0 1 0 -4.993-.512 8.992 8.992 0 0 0 -5.7 2.6l-1.867 1.867a2.121 2.121 0 0 0 3 3l1.043-1.043.457.432v4.111a2 2 0 0 0 -2 2 2 2 0 0 0 -4 0v4h16v1a2 2 0 0 0 4 0v-9a9 9 0 0 0 -5.94-8.455z" fill="#ffd88c"/><path d="m35 26.414h1.999v16.506h-1.999z" fill="#bfbfbf" transform="matrix(.68661817 -.72701822 .72701822 .68661817 -13.921 37.037)"/><path d="m37.991 54a11.19 11.19 0 0 1 -6.512-1.942 9.136 9.136 0 0 0 -5.479-1.658 9.135 9.135 0 0 0 -5.485 1.658 11.2 11.2 0 0 1 -6.515 1.942 11.2 11.2 0 0 1 -6.513-1.942 9.131 9.131 0 0 0 -5.487-1.658v-2a11.2 11.2 0 0 1 6.513 1.943 9.138 9.138 0 0 0 5.487 1.657 9.141 9.141 0 0 0 5.484-1.657 11.2 11.2 0 0 1 6.516-1.943 11.2 11.2 0 0 1 6.513 1.943 9.14 9.14 0 0 0 5.478 1.657 9.159 9.159 0 0 0 5.488-1.657 11.211 11.211 0 0 1 5.447-1.905l.148 1.995a9.276 9.276 0 0 0 -4.566 1.625 11.205 11.205 0 0 1 -6.517 1.942z" fill="#a3c2db"/><rect fill="#cc463c" height="2" rx="1" width="11" x="7" y="44"/><path d="m55.823 59a5.176 5.176 0 0 0 1.523-10.124l-9.346-2.876 2.876 9.346a5.091 5.091 0 0 0 1.124 1.948" fill="#f9a419"/><path d="m62 62a11.208 11.208 0 0 1 -6.517-1.942 9.91 9.91 0 0 0 -10.975 0 11.208 11.208 0 0 1 -6.517 1.942 11.19 11.19 0 0 1 -6.512-1.942 9.136 9.136 0 0 0 -5.479-1.658 9.135 9.135 0 0 0 -5.485 1.658 11.2 11.2 0 0 1 -6.515 1.942 11.2 11.2 0 0 1 -6.513-1.942 9.131 9.131 0 0 0 -5.487-1.658v-2a11.2 11.2 0 0 1 6.513 1.943 9.138 9.138 0 0 0 5.487 1.657 9.141 9.141 0 0 0 5.484-1.657 11.2 11.2 0 0 1 6.516-1.943 11.2 11.2 0 0 1 6.513 1.943 9.14 9.14 0 0 0 5.478 1.657 9.154 9.154 0 0 0 5.488-1.657 11.9 11.9 0 0 1 13.034 0 9.149 9.149 0 0 0 5.487 1.657z" fill="#a3c2db"/></svg>
