<svg id="Capa_1" enable-background="new 0 0 511.219 511.219" height="512" viewBox="0 0 511.219 511.219" width="512" xmlns="http://www.w3.org/2000/svg"><g><g><path d="m331.719 193.648h-40v-10c0-11.046 8.954-20 20-20 11.046 0 20 8.954 20 20z" fill="#fdb441"/><path d="m312.341 163.679c2.734 3.42 4.378 7.75 4.378 12.469 0 5.523-4.477 10-10 10h-15v7.5h40v-10c0-10.836-8.623-19.637-19.378-19.969z" fill="#fea613"/><path d="m388.527 225.539h-153.617v-.108c0-17.553 14.23-31.783 31.783-31.783h90.051c17.553 0 31.783 14.23 31.783 31.783z" fill="#e2e2e2"/><path d="m363.01 194.269c.035.051.069.102.104.153 5.094 7.556-.493 17.747-9.606 17.754l-115.744.096c-1.827 4.011-2.854 8.464-2.854 13.159v.108h153.617v-.108c0-15.408-10.965-28.252-25.517-31.162z" fill="#cecece"/><path d="m70.721 223.704-28.763-51.392c-.893-1.157-2.273-1.835-3.737-1.835h-25.725c-3.365 0-5.769 3.257-4.778 6.473l22.87 74.188c4.209 11.265 13.689 19.697 25.31 22.514l136.233 33.019c11.135 2.699 20.037 11.102 23.429 22.116 6.141 19.941 24.462 33.534 45.198 33.534h197.875c8.724 0 15.797-7.121 15.797-15.905 0-11.391-.966-22.874-1.637-34.243-1.303-22.071-6.396-42.331-21.671-58.923-13.281-14.427-31.608-24.323-51.084-26.955-3.732-.504-7.497-.756-11.263-.756h-314.317c-1.464 0-2.844-.678-3.737-1.835z" fill="#fdb441"/><g><path d="m472.793 312.173c-1.303-22.071-6.396-42.331-21.671-58.923-10.9-11.84-25.201-20.62-40.744-24.846 3.851 2.977 7.453 6.271 10.744 9.846 15.275 16.593 20.368 36.852 21.671 58.923.671 11.369 1.637 22.852 1.637 34.243 0 8.784-7.073 15.905-15.797 15.905h-197.875c-1.579 0-3.141-.088-4.688-.243 8.756 9.496 21.209 15.243 34.688 15.243h197.875c8.724 0 15.797-7.121 15.797-15.905 0-11.391-.966-22.874-1.637-34.243z" fill="#fea613"/></g><path d="m453.137 255.539h-92.297c-9.389 0-17 7.611-17 17v22.981c0 8.784 7.073 15.905 15.797 15.905h113.107c-1.31-20.778-6.061-39.925-19.607-55.886z" fill="#c4e2ff"/><path d="m468.602 285.227c-.001-.004-.002-.008-.003-.013-.333-1.188-.689-2.367-1.069-3.537 0-.002-.001-.003-.001-.005-3.045-9.377-7.618-18.153-14.39-26.133 0 0-.001-.001-.001-.001h-20.129c6.295 12.674 8.906 26.74 9.785 41.634.28 4.736.608 9.492.898 14.252h29.053c-.574-9.087-1.806-17.863-4.143-26.197z" fill="#b3dafe"/><path d="m273.719 131.451h-139c-8.284 0-15-6.716-15-15 0-8.284 6.716-15 15-15h139c2.761 0 5 2.239 5 5v20c0 2.762-2.239 5-5 5z" fill="#e2e2e2"/><path d="m273.719 101.451h-10c0 8.284-6.716 15-15 15h-129c0 8.284 6.716 15 15 15h139c2.761 0 5-2.239 5-5v-20c0-2.761-2.239-5-5-5z" fill="#cecece"/><path d="m487.219 132.951h-137.5c-2.761 0-5-2.239-5-5v-23c0-2.761 2.239-5 5-5h137.5c9.113 0 16.5 7.387 16.5 16.5 0 9.113-7.387 16.5-16.5 16.5z" fill="#e2e2e2"/><path d="m488.647 100.023c.041.472.072.946.072 1.428 0 9.113-7.387 16.5-16.5 16.5h-127.5v10c0 2.761 2.239 5 5 5h137.5c9.113 0 16.5-7.387 16.5-16.5 0-8.63-6.63-15.702-15.072-16.428z" fill="#cecece"/><path d="m303.84 311.425h-47.125c-5.523 0-10-4.477-10-10v-34.927c0-5.523 4.477-10 10-10h47.125c5.523 0 10 4.477 10 10v34.927c0 5.523-4.477 10-10 10z" fill="#c4e2ff"/><g fill="#d8ecfe"><path d="m378.468 311.425h13.424l15.886-55.886h-13.768z"/><path d="m395.846 311.425h4.503l15.886-55.886h-4.847z"/><path d="m265.622 311.425h4.503l15.886-54.926h-4.848z"/><path d="m274.307 311.425h9.751l15.886-54.926h-10.096z"/></g></g><path d="m59.986 123.062h25.896c4.143 0 7.5-3.358 7.5-7.5s-3.357-7.5-7.5-7.5h-25.896c-4.143 0-7.5 3.358-7.5 7.5s3.358 7.5 7.5 7.5zm-32.07 0h6.13c4.143 0 7.5-3.358 7.5-7.5s-3.357-7.5-7.5-7.5h-6.13c-4.143 0-7.5 3.358-7.5 7.5s3.357 7.5 7.5 7.5zm275.924 195.863c9.649 0 17.5-7.851 17.5-17.5v-34.927c0-9.649-7.851-17.5-17.5-17.5h-47.125c-9.649 0-17.5 7.851-17.5 17.5v34.927c0 9.649 7.851 17.5 17.5 17.5zm-49.625-17.5v-34.927c0-1.379 1.121-2.5 2.5-2.5h47.125c1.379 0 2.5 1.121 2.5 2.5v34.927c0 1.379-1.121 2.5-2.5 2.5h-47.125c-1.379 0-2.5-1.121-2.5-2.5zm250.911 63.28c-3.925-1.328-8.181.776-9.508 4.701-6.951 20.553-26.198 34.361-47.894 34.361h-44.594v-33.946h55.502c12.847 0 23.298-10.5 23.298-23.405 0-9.016-.589-18.094-1.159-26.873-.169-2.608-.338-5.213-.491-7.812-2.142-36.281-14.518-53.651-23.641-63.562-14.563-15.818-34.827-26.501-55.597-29.308-1.878-.254-3.776-.443-5.679-.58-3.372-18.258-19.4-32.134-38.619-32.134h-17.525v-2.5c0-12.563-8.472-23.178-20-26.452v-33.244h18v4c0 6.893 5.607 12.5 12.5 12.5h137.5c13.233 0 24-10.766 24-24s-10.767-24-24-24h-137.5c-6.893 0-12.5 5.607-12.5 12.5v4h-18v-7.5c0-4.142-3.357-7.5-7.5-7.5s-7.5 3.358-7.5 7.5v7.5h-18v-2.5c0-6.893-5.607-12.5-12.5-12.5h-139c-12.406 0-22.5 10.093-22.5 22.5s10.094 22.5 22.5 22.5h139c6.893 0 12.5-5.607 12.5-12.5v-2.5h18v33.244c-11.528 3.274-20 13.889-20 26.452v2.5h-17.525c-19.134 0-35.107 13.753-38.576 31.891h-151.973l-7.935-14.177c-2.024-3.615-6.592-4.904-10.208-2.881-3.614 2.023-4.904 6.593-2.882 10.208l9.056 16.179c.18.321.383.627.607.918 2.296 2.977 5.912 4.753 9.674 4.753h314.317c3.428 0 6.88.231 10.259.688 12.387 1.674 24.567 6.732 34.978 14.312h-73.171c-13.51 0-24.5 10.99-24.5 24.5v22.981c0 12.905 10.451 23.405 23.297 23.405h106.067c.034.53.065 1.058.1 1.589.554 8.541 1.127 17.372 1.127 25.901 0 4.635-3.723 8.405-8.298 8.405h-84.793c-4.143 0-7.5 3.357-7.5 7.5s3.357 7.5 7.5 7.5h14.291v33.946h-112.315v-33.946h68.023c4.143 0 7.5-3.357 7.5-7.5s-3.357-7.5-7.5-7.5h-83.081c-17.546 0-32.829-11.35-38.03-28.241-4.148-13.472-15.195-23.894-28.83-27.198l-136.233-33.017c-9.146-2.218-16.602-8.811-19.979-17.656l-21.804-70.729h20.651l5.373 9.601c2.024 3.615 6.594 4.905 10.208 2.881 3.614-2.023 4.904-6.593 2.882-10.208l-6.494-11.603c-.18-.321-.383-.628-.607-.919-2.296-2.976-5.913-4.753-9.674-4.753h-25.725c-3.951 0-7.71 1.897-10.057 5.076s-3.053 7.331-1.889 11.106l22.87 74.188c.043.141.09.279.142.416 5.085 13.61 16.513 23.77 30.569 27.178l136.233 33.019c8.521 2.065 15.428 8.593 18.027 17.034 7.151 23.224 28.195 38.827 52.366 38.827h.058v33.946h-54.271c-4.143 0-7.5 3.357-7.5 7.5s3.357 7.5 7.5 7.5h241.18c28.132 0 53.089-17.905 62.103-44.555 1.327-3.923-.777-8.18-4.701-9.507zm-152.907-257.254h135c4.963 0 9 4.038 9 9s-4.037 9-9 9h-135zm-81 16.5h-136.5c-4.136 0-7.5-3.364-7.5-7.5s3.364-7.5 7.5-7.5h136.5zm28 59.697c0-6.893 5.607-12.5 12.5-12.5s12.5 5.607 12.5 12.5v2.5h-25zm-55.655 34.391c3.135-9.786 12.316-16.891 23.129-16.891h90.051c10.813 0 19.994 7.105 23.129 16.891zm116.073 85.886c-4.575 0-8.297-3.771-8.297-8.405v-22.981c0-5.238 4.262-9.5 9.5-9.5h88.712c8.228 10.734 13.019 23.763 15.003 40.887h-104.918z"/></g></svg>