<?xml version="1.0" standalone="no"?>
<!DOCTYPE svg PUBLIC "-//W3C//DTD SVG 20010904//EN"
 "http://www.w3.org/TR/2001/REC-SVG-20010904/DTD/svg10.dtd">
<svg version="1.0" xmlns="http://www.w3.org/2000/svg"
 width="1280.000000pt" height="1280.000000pt" viewBox="0 0 1280.000000 1280.000000"
 preserveAspectRatio="xMidYMid meet">
<metadata>
Created by potrace 1.15, written by Peter Selinger 2001-2017
</metadata>
<g transform="translate(0.000000,1280.000000) scale(0.100000,-0.100000)"
fill="#f44336" stroke="none">
<path d="M6055 11684 c-27 -2 -120 -11 -205 -20 -2365 -242 -4295 -2065 -4674
-4415 -53 -328 -60 -427 -60 -849 0 -422 7 -521 60 -849 121 -753 399 -1455
829 -2096 201 -301 393 -533 655 -795 267 -267 498 -456 810 -665 712 -474
1464 -750 2342 -857 161 -19 231 -22 583 -22 428 -1 524 6 854 60 1743 281
3244 1431 3975 3047 191 423 327 871 400 1328 53 328 60 427 60 849 0 422 -7
521 -60 849 -73 456 -209 906 -400 1327 -727 1606 -2210 2750 -3943 3044 -292
49 -440 61 -816 64 -198 2 -382 2 -410 0z m795 -829 c895 -93 1731 -446 2420
-1021 134 -112 374 -347 503 -494 579 -659 949 -1478 1067 -2360 114 -858 -33
-1758 -414 -2536 -265 -542 -626 -1013 -1086 -1417 -530 -465 -1174 -802
-1863 -972 -1038 -256 -2115 -139 -3065 335 -528 263 -991 621 -1385 1070
-579 660 -949 1478 -1067 2360 -74 556 -39 1130 102 1685 172 677 506 1312
965 1835 129 147 369 382 503 494 611 510 1346 850 2123 981 130 22 376 49
522 59 122 8 525 -4 675 -19z"/>
<path d="M3535 7181 c-48 -22 -79 -54 -100 -103 -13 -32 -15 -122 -15 -680 0
-604 2 -645 19 -683 22 -48 54 -79 103 -100 33 -13 335 -15 2860 -15 2723 0
2824 1 2863 19 48 22 79 54 100 103 13 32 15 122 15 680 0 602 -2 646 -19 683
-22 50 -69 91 -119 105 -25 7 -946 10 -2852 10 -2715 0 -2816 -1 -2855 -19z"/>
</g>
</svg>
