<?xml version="1.0" encoding="utf-8"?>
<!-- Generator: Adobe Illustrator 18.0.0, SVG Export Plug-In . SVG Version: 6.00 Build 0)  -->
<!DOCTYPE svg PUBLIC "-//W3C//DTD SVG 1.1//EN" "http://www.w3.org/Graphics/SVG/1.1/DTD/svg11.dtd">
<svg version="1.1" id="Layer_1" xmlns="http://www.w3.org/2000/svg" xmlns:xlink="http://www.w3.org/1999/xlink" x="0px" y="0px"
	 width="800px" height="600px" viewBox="0 0 800 600" enable-background="new 0 0 800 600" xml:space="preserve">
<g>
	<rect fill="#00AEEF" width="800" height="600"/>
	<path fill="#1C75BC" d="M800,65.1v-1h-46.4V0h-1v64.1h-77.5V0h-1v64.1h-77.5V0h-1v64.1h-77.5V0h-1v64.1h-77.5V0h-1v64.1h-77.5V0h-1
		v64.1h-77.5V0h-1v64.1h-77.5V0h-1v64.1h-77.5V0h-1v64.1H47.4V0h-1v64.1H0v1h46.4v77.5H0v1h46.4V221H0v1h46.4v77.5H0v1h46.4V378H0v1
		h46.4v77.5H0v1h46.4v77.5H0v1h46.4V600h1v-64.1h77.5V600h1v-64.1h77.5V600h1v-64.1h77.5V600h1v-64.1h77.5V600h1v-64.1h77.5V600h1
		v-64.1h77.5V600h1v-64.1h77.5V600h1v-64.1h77.5V600h1v-64.1h77.5V600h1v-64.1H800v-1h-46.4v-77.5H800v-1h-46.4V379H800v-1h-46.4
		v-77.5H800v-1h-46.4V222H800v-1h-46.4v-77.5H800v-1h-46.4V65.1H800z M674.1,65.1v77.5h-77.5V65.1H674.1z M438.7,299.5h-77.5V222
		h77.5V299.5z M439.7,222h77.5v77.5h-77.5V222z M360.3,299.5h-77.5V222h77.5V299.5z M281.8,299.5h-77.5V222h77.5V299.5z
		 M281.8,300.5V378h-77.5v-77.5H281.8z M282.8,300.5h77.5V378h-77.5V300.5z M361.3,300.5h77.5V378h-77.5V300.5z M439.7,300.5h77.5
		V378h-77.5V300.5z M518.2,300.5h77.5V378h-77.5V300.5z M518.2,299.5V222h77.5v77.5H518.2z M518.2,221v-77.5h77.5V221H518.2z
		 M517.2,221h-77.5v-77.5h77.5V221z M438.7,221h-77.5v-77.5h77.5V221z M360.3,221h-77.5v-77.5h77.5V221z M281.8,221h-77.5v-77.5
		h77.5V221z M203.4,221h-77.5v-77.5h77.5V221z M203.4,222v77.5h-77.5V222H203.4z M203.4,300.5V378h-77.5v-77.5H203.4z M203.4,379
		v77.5h-77.5V379H203.4z M204.4,379h77.5v77.5h-77.5V379z M282.8,379h77.5v77.5h-77.5V379z M361.3,379h77.5v77.5h-77.5V379z
		 M439.7,379h77.5v77.5h-77.5V379z M518.2,379h77.5v77.5h-77.5V379z M596.6,379h77.5v77.5h-77.5V379z M596.6,378v-77.5h77.5V378
		H596.6z M596.6,299.5V222h77.5v77.5H596.6z M596.6,221v-77.5h77.5V221H596.6z M595.6,65.1v77.5h-77.5V65.1H595.6z M517.2,65.1v77.5
		h-77.5V65.1H517.2z M438.7,65.1v77.5h-77.5V65.1H438.7z M360.3,65.1v77.5h-77.5V65.1H360.3z M281.8,65.1v77.5h-77.5V65.1H281.8z
		 M203.4,65.1v77.5h-77.5V65.1H203.4z M47.4,65.1h77.5v77.5H47.4V65.1z M47.4,143.6h77.5V221H47.4V143.6z M47.4,222h77.5v77.5H47.4
		V222z M47.4,300.5h77.5V378H47.4V300.5z M47.4,379h77.5v77.5H47.4V379z M47.4,534.9v-77.5h77.5v77.5H47.4z M125.9,534.9v-77.5h77.5
		v77.5H125.9z M204.4,534.9v-77.5h77.5v77.5H204.4z M282.8,534.9v-77.5h77.5v77.5H282.8z M361.3,534.9v-77.5h77.5v77.5H361.3z
		 M439.7,534.9v-77.5h77.5v77.5H439.7z M518.2,534.9v-77.5h77.5v77.5H518.2z M596.6,534.9v-77.5h77.5v77.5H596.6z M752.6,534.9
		h-77.5v-77.5h77.5V534.9z M752.6,456.4h-77.5V379h77.5V456.4z M752.6,378h-77.5v-77.5h77.5V378z M752.6,299.5h-77.5V222h77.5V299.5
		z M752.6,221h-77.5v-77.5h77.5V221z M752.6,142.6h-77.5V65.1h77.5V142.6z"/>
	<g>
		<g>
			<path fill="#1C75BC" d="M685.9,147.5c-37.3-37.3-97.6-37.3-134.9,0c-37.3,37.3-37.3,97.6,0,134.9c37.3,37.3,97.6,37.3,134.9,0
				S723.2,184.8,685.9,147.5z M582.8,250.6c-19.7-19.7-19.7-51.6,0-71.3c19.7-19.7,51.6-19.7,71.3,0c19.7,19.7,19.7,51.6,0,71.3
				C634.4,270.3,602.5,270.3,582.8,250.6z"/>
			<g>
				<circle fill="#1C75BC" cx="568.3" cy="296.7" r="15.8"/>
				<path fill="#1C75BC" d="M588.1,303.4c-1.2,0.5-4.5,8-10.2,10.2c-5.7,2.2-15,1.3-11.6,3.5c3.3,2.2,8.5,3.1,15.2-2.4
					C588.2,309,590.2,302.5,588.1,303.4z"/>
				<path fill="#1C75BC" d="M567.3,276.8c0,0-6.1,1.2-8.9,3.6c-2.8,2.5-5.1,6.3-5.4,5.4c-0.3-0.9,1.6-7.7,7.7-10.3
					C566.9,272.8,573.6,276,567.3,276.8z"/>
				<path fill="#1C75BC" d="M563.1,315.3c-1.1-1.5-4.2-4.2-5.5-2.6S564.7,317.6,563.1,315.3z"/>
			</g>
			<g>
				<circle fill="#1C75BC" cx="522.5" cy="250.8" r="15.8"/>
				<path fill="#1C75BC" d="M521.7,232c-2.7-0.3-8.6,4.7-9.7,4.1c-1.1-0.7,4-7.1,10.9-6.2C527.3,230.5,527.7,232.6,521.7,232z"/>
				<path fill="#1C75BC" d="M508.7,238.2c-2.1,0.5-7.1,2.8-6.9,5s-2.3,4-1,8.3c1.2,4.3,7.4,10.7,4.8,6.1s-3.6-7.1-2.5-10.7
					C504.1,243.3,512.2,237.4,508.7,238.2z"/>
				<path fill="#1C75BC" d="M541.9,251.7c-0.8-1.6-1.6,4.9-3.5,8.3C536.6,263.4,545.1,257.8,541.9,251.7z"/>
				<path fill="#1C75BC" d="M536.4,263.8c-0.9-0.8-2.1,1.6-5.3,2.8c-3.2,1.3-9.2,0.9-10.2,2.2c-1,1.4,6.4,2.1,9.7,0.2
					S537.6,264.8,536.4,263.8z"/>
			</g>
			<path fill="#1C75BC" d="M560.6,289c0,0-34.4,13.9-40.2,23.8c-5.8,9.9-2.9,31.4,3.9,27.8s8-15.3,10.6-19.6
				c2.6-4.4,38.1-15.7,38.1-15.7L560.6,289z"/>
			<path fill="#1C75BC" d="M530,258.4c0,0-13.9,34.4-23.8,40.2s-31.4,2.9-27.8-3.9s15.3-8,19.6-10.6s15.7-38.1,15.7-38.1L530,258.4z
				"/>
			<path fill="#FFFFFF" d="M685.9,133.1c-37.3-37.3-97.6-37.3-134.9,0c-37.3,37.3-37.3,97.6,0,134.9c37.3,37.3,97.6,37.3,134.9,0
				S723.2,170.3,685.9,133.1z M582.8,236.2c-19.7-19.7-19.7-51.6,0-71.3c19.7-19.7,51.6-19.7,71.3,0c19.7,19.7,19.7,51.6,0,71.3
				C634.4,255.9,602.5,255.9,582.8,236.2z"/>
			<path fill="#D1D3D4" d="M648.1,159.7c-1.5-2.1-3.3-4.1-5.2-6c-19.7-19.7-51.6-19.7-71.3,0c-19.7,19.7-19.7,51.6,0,71.3
				c1.9,1.9,3.9,3.6,6,5.2c-14.3-19.7-12.6-47.5,5.2-65.3C600.6,147.1,628.4,145.3,648.1,159.7z"/>
			<g>
				<path fill="#D1D3D4" d="M642.5,244.8c-10.6,5.8-22.9,7.4-34.5,5l-17.8,41.8c7.5,2.3,15.3,3.7,23.1,4.1
					C623.9,285.2,638,267.5,642.5,244.8z"/>
				<path fill="#D1D3D4" d="M707.2,165.6l-40.5,20.3c1.8,5.9,2.5,12.1,2,18.3l13.6-11.9c0,0,17.8,13.8,28.3,32.5
					C715.8,205.3,714.7,184.5,707.2,165.6z"/>
			</g>
			<path fill="#D1D3D4" d="M685.9,133.1c-1.9-1.9-3.9-3.7-5.9-5.4c31.8,37.5,30,93.7-5.4,129c-35.4,35.4-91.6,37.1-129,5.4
				c1.7,2,3.5,4,5.4,5.9c37.3,37.3,97.6,37.3,134.9,0S723.2,170.3,685.9,133.1z"/>
			<g>
				<path fill="#FBBCA1" d="M596.5,183.5l52-66.2c0,0,12.3,5.7,28.5,21.9s23.4,30,23.4,30l-65,53.2
					C635.4,222.5,615.3,209.3,596.5,183.5z"/>
				<path fill="#FBBCA1" d="M648.5,117.4c0,0-23-26.6-41.5-27.4c-18.5-0.8-41.2,20.7-41.2,20.7l2.3,5.4c0,0,30.2-12.3,41.2-6.7
					c11,5.7,27.1,27.1,27.1,27.1S645,130.9,648.5,117.4z"/>
				<path fill="#FBBCA1" d="M575.3,192.2c0,0-31.1,4.9-52.2,32.9c-21,28-0.5,40.1,9.1,30.6c9.6-9.5,35.6-32.5,56.7-39.3
					C588.8,216.4,593,206.1,575.3,192.2z"/>
				<path fill="#FBBCA1" d="M627.1,244c0,0-4.9,31.1-32.9,52.2c-28,21-40.1,0.5-30.6-9.1c9.5-9.6,32.5-35.6,39.3-56.7
					C602.9,230.4,613.1,226.2,627.1,244z"/>
				<path fill="#E89789" d="M532.1,215c-0.6,6.4-0.1,18.8,9.6,31.8c5.9-5.2,13.3-11.2,21.2-16.6l-27.7-18.1
					C534.1,213.1,533.1,214,532.1,215z"/>
				<path fill="#E89789" d="M577.7,271.4c2.9,7.3,8.9,18.4,19.7,22.2c7.3-6.1,12.8-12.8,17-19.2l-32.6-8.2
					C580.5,267.9,579.1,269.7,577.7,271.4z"/>
				<path fill="#FBBCA1" d="M700.5,169.3c0,0,26.6,23,27.4,41.5c0.8,18.5-20.7,41.2-20.7,41.2l-5.4-2.3c0,0,12.3-30.2,6.7-41.2
					c-5.7-11-27.1-27.1-27.1-27.1S686.9,172.8,700.5,169.3z"/>
				<path fill="#ED1C24" d="M635.4,222.5L616,203l-19.5-19.5c0,0-30.7-7.8-63.7,27c0,0,6.8,23.5,21.7,32.9c0,0,16.7-19,43-22.1
					c-3.1,26.4-22.1,43-22.1,43c9.5,14.9,32.9,21.7,32.9,21.7C643.3,253.2,635.4,222.5,635.4,222.5z"/>
				<path fill="#E89789" d="M701.8,249.7c0,0-6.7,1-8.1,3.2c-1.3,2.2,3.5,1.4,3.5,1.4s-8.6,6.6-7.6,7.6c1,1,11.4,3.7,17.6-9.8
					L701.8,249.7z"/>
				<path fill="#FBBCA1" d="M568.1,116c0,0-1,6.7-3.2,8.1c-2.2,1.3-1.4-3.5-1.4-3.5s-6.6,8.6-7.6,7.6c-1-1-3.7-11.4,9.8-17.6
					L568.1,116z"/>
				<path fill="#E89789" d="M667.1,130.2l-1.5-0.5c0,0-4,25.1,11.2,32.7c6.9,3.5,11.5-1,14.4-7c-3.6-4.7-8.3-10.2-14.2-16.1
					C673.5,135.8,670.2,132.7,667.1,130.2z"/>
				<path fill="#FBBCA1" d="M673.8,115.6c0,0-17.3,19.8-5.6,32.8c11.8,13,56-13.3,42-33.5C696.3,94.8,680.9,105.4,673.8,115.6z"/>
				<path fill="#183145" d="M683.5,113.8c0,0-3.2,5.4,1.6,14.4c4.8,9,11.9,20.6,17,17s19-14.7,10-30.7c-9-16-22.5-12.9-22.5-12.9
					s-2.8-0.7-7.1,1.3c-4.4,2-12.7,11-9.7,14S683.5,113.8,683.5,113.8z"/>
				<path fill="#BE1E2D" d="M635.4,222.5L616,203l-19.5-19.5l29.4,42.9c0,0,3.5,30.6-17.4,59.7C643.3,253.2,635.4,222.5,635.4,222.5
					z"/>
				<path fill="#E89789" d="M727.9,210.9c-0.3-5.7-3-11.9-6.6-17.6l0,0c0,0,3.4,24.2-16.6,48.7c-1.6,4.6-2.8,7.8-2.8,7.8l5.4,2.3
					C707.3,252.1,728.8,229.4,727.9,210.9z"/>
			</g>
		</g>
		<g>
			<path fill="#1C75BC" d="M186.6,245.2c4.3-2.4,21.2-15.9,38.2-36.6c17-20.6,23-34,23-34l-21.5-21.5l-21.5-21.5c0,0-13.4,6-34,23
				c-20.6,17-34.1,33.9-36.6,38.2c-2.4,4.3-23.8,15.6-38.9,35.6s-29,24.1-20.6,33.3c8.4,9.2,27.5-16.2,34.4-21.8
				c6.9-5.6,84.3-53.9,84.3-53.9s-48.3,77.4-53.9,84.3c-5.6,6.9-30.9,26.1-21.8,34.4c9.2,8.4,13.2-5.5,33.3-20.6
				C170.9,269,182.3,247.7,186.6,245.2z"/>
			<path fill="#1C75BC" d="M292.2,101.6c-37.3-37.3-97.6-37.3-134.9,0s-37.3,97.6,0,134.9c37.3,37.3,97.6,37.3,134.9,0
				S329.4,138.9,292.2,101.6z M189,204.7c-19.7-19.7-19.7-51.6,0-71.3c19.7-19.7,51.6-19.7,71.3,0c19.7,19.7,19.7,51.6,0,71.3
				C240.7,224.4,208.7,224.4,189,204.7z"/>
			<path fill="#FFFFFF" d="M292.2,87.2c-37.3-37.3-97.6-37.3-134.9,0s-37.3,97.6,0,134.9c37.3,37.3,97.6,37.3,134.9,0
				S329.4,124.4,292.2,87.2z M189,190.3c-19.7-19.7-19.7-51.6,0-71.3c19.7-19.7,51.6-19.7,71.3,0c19.7,19.7,19.7,51.6,0,71.3
				C240.7,210,208.7,210,189,190.3z"/>
			<path fill="#D1D3D4" d="M254.3,113.8c-1.5-2.1-3.3-4.1-5.2-6c-19.7-19.7-51.6-19.7-71.3,0c-19.7,19.7-19.7,51.6,0,71.3
				c1.9,1.9,3.9,3.6,6,5.2c-14.3-19.7-12.6-47.5,5.2-65.3C206.8,101.2,234.6,99.4,254.3,113.8z"/>
			<g>
				<path fill="#D1D3D4" d="M248.8,198.9c-10.6,5.8-22.9,7.4-34.5,5l-17.8,41.8c7.5,2.3,15.3,3.7,23.1,4.1
					C230.2,239.3,244.3,221.6,248.8,198.9z"/>
				<path fill="#D1D3D4" d="M313.5,119.7L273,140c1.8,5.9,2.5,12.1,2,18.3l13.6-11.9c0,0,17.8,13.8,28.3,32.5
					C322.1,159.4,320.9,138.6,313.5,119.7z"/>
			</g>
			<path fill="#D1D3D4" d="M292.2,87.2c-1.9-1.9-3.9-3.7-5.9-5.4c31.8,37.5,30,93.7-5.4,129s-91.6,37.1-129,5.4c1.7,2,3.5,4,5.4,5.9
				c37.3,37.3,97.6,37.3,134.9,0S329.4,124.4,292.2,87.2z"/>
			<path fill="#FBBCA1" d="M204.7,131.6l36.9-47c0,0,12.3,5.7,28.5,21.9s23.4,30,23.4,30l-45.7,37.4c-12,9.8-29.5,8.9-40.4-2.1
				c-0.2-0.2-0.3-0.4-0.5-0.5C196.3,160.5,195.3,143.5,204.7,131.6z"/>
			<g>
				<path fill="#FBBCA1" d="M241.8,67.9c21,6.7,48.2,18.7,48.2,18.7l2.5-6.8c0,0-35.9-28.2-50.2-31.6c-4.8-1.1-10.9-0.7-17.4,9.2
					c-10,15.5-3.6,53.3-3.6,53.3s16-12.9,20.2-26.1C241.6,84.6,241.6,79.3,241.8,67.9z"/>
				<path fill="#FBBCA1" d="M310,136.2c-6.7-21-18.7-48.2-18.7-48.2l6.8-2.5c0,0,28.2,35.9,31.6,50.2c1.1,4.8,0.7,10.9-9.2,17.4
					c-15.5,10-53.3,3.6-53.3,3.6s12.9-16,26.1-20.2C293.4,136.4,298.6,136.4,310,136.2z"/>
			</g>
			<g>
				<path fill="#183145" d="M263.8,86c0,0-17.3,19.8-5.6,32.8c11.8,13,56-13.3,42-33.5C286.2,65.2,270.8,75.8,263.8,86z"/>
				<path fill="#183145" d="M260.2,90.8c0,0,9.6-10.6,18.5-13.4c0,0,9.5,14.7,18.8,18.8c0,0-6.1,11.9-11.7,20.2
					c0,0,16.3-7.4,19.8-22.5c0,0,10.7-0.3,6.4-9.3c-4.4-9-28.3-19.4-31-14.8C281,69.9,266.2,71.5,260.2,90.8z"/>
			</g>
		</g>
		<g>
			<path fill="#1C75BC" d="M440.4,397.2c-0.9-0.9-1.9-1.8-2.8-2.7c-35.6-32.7-91-31.8-125.6,2.7c-9,9-15.7,19.4-20.1,30.5
				c-21.8-9.2-68,8.9-68.6,33.7c0.6,24.8,46.8,42.9,68.6,33.7c0.7,1.7,1.4,3.4,2.2,5c0,0,0,0,0,0h0c3.3,7,7.6,13.7,12.8,19.9l0,0
				c0,0,0,0,0,0c0.8,0.9,1.6,1.8,2.4,2.7c0.9,1,1.8,1.9,2.7,2.8c35.5,35.5,93,35.5,128.4,0S475.9,432.7,440.4,397.2z M410.2,495.4
				c-18.7,18.7-49.1,18.7-67.9,0c-1.8-1.8-3.5-3.7-4.9-5.8l0,0c-1.2-1.6-2.2-3.3-3.2-5c-0.1-0.2-0.2-0.4-0.3-0.5
				c-0.2-0.4-0.4-0.9-0.7-1.3c-0.1-0.2-0.2-0.5-0.3-0.7c-0.2-0.4-0.4-0.9-0.6-1.3c-0.1-0.2-0.2-0.5-0.3-0.7
				c-0.2-0.4-0.3-0.8-0.5-1.3c-0.1-0.3-0.2-0.5-0.3-0.8c-0.2-0.4-0.3-0.8-0.4-1.3c-0.1-0.3-0.2-0.5-0.3-0.8
				c-0.1-0.4-0.3-0.9-0.4-1.3c-0.1-0.3-0.1-0.5-0.2-0.8c-0.1-0.4-0.2-0.9-0.3-1.3c-0.1-0.2-0.1-0.4-0.1-0.7
				c4.5-2.8,7.3-6.7,7.3-11.8c0.1-5-2.5-8.8-6.7-11.6c0.1-0.3,0.1-0.5,0.2-0.8c0.2-0.7,0.4-1.4,0.7-2.1c0.1-0.2,0.2-0.4,0.2-0.6
				c0.2-0.5,0.4-1,0.6-1.5c0.1-0.3,0.2-0.5,0.3-0.8c0.2-0.4,0.4-0.8,0.5-1.2c0.1-0.3,0.3-0.6,0.4-0.9c0.2-0.4,0.4-0.8,0.6-1.2
				c0.1-0.3,0.3-0.6,0.5-0.9c0.2-0.4,0.4-0.8,0.6-1.1c0.2-0.3,0.3-0.6,0.5-0.8c0.2-0.4,0.5-0.7,0.7-1.1c0.2-0.3,0.4-0.5,0.5-0.8
				c0.2-0.4,0.5-0.7,0.8-1.1c0.2-0.3,0.4-0.5,0.6-0.8c0.3-0.4,0.6-0.7,0.9-1.1c0.2-0.2,0.4-0.5,0.6-0.7c0.3-0.4,0.7-0.8,1-1.2
				c0.2-0.2,0.3-0.4,0.5-0.6c0.5-0.6,1.1-1.2,1.6-1.7c0.6-0.6,1.1-1.1,1.7-1.6c0.2-0.2,0.4-0.3,0.6-0.5c0.4-0.3,0.8-0.7,1.2-1
				c0.2-0.2,0.5-0.4,0.7-0.6c0.4-0.3,0.7-0.6,1.1-0.9c0.3-0.2,0.5-0.4,0.8-0.6c0.4-0.3,0.7-0.5,1.1-0.8c0.3-0.2,0.5-0.4,0.8-0.5
				c0.4-0.2,0.7-0.5,1.1-0.7c0.3-0.2,0.6-0.3,0.8-0.5c0.4-0.2,0.8-0.4,1.1-0.6c0.3-0.2,0.6-0.3,0.9-0.5c0.4-0.2,0.8-0.4,1.2-0.6
				c0.3-0.1,0.6-0.3,0.9-0.4c0.4-0.2,0.8-0.4,1.2-0.5c0.3-0.1,0.5-0.2,0.8-0.3c0.5-0.2,1-0.4,1.5-0.6c0.2-0.1,0.4-0.2,0.6-0.2
				c0.7-0.2,1.4-0.5,2.1-0.7c0.3-0.1,0.6-0.2,0.8-0.2c0.4-0.1,0.9-0.2,1.3-0.3c0.3-0.1,0.7-0.2,1-0.2c0.4-0.1,0.8-0.2,1.2-0.3
				c0.3-0.1,0.7-0.1,1-0.2c0.4-0.1,0.7-0.1,1.1-0.2c0.4-0.1,0.7-0.1,1.1-0.2c0.4,0,0.7-0.1,1.1-0.1c0.4,0,0.7-0.1,1.1-0.1
				c0.4,0,0.7-0.1,1.1-0.1c0.4,0,0.8,0,1.1-0.1c0.3,0,0.7,0,1,0c0.4,0,0.8,0,1.2,0c0.3,0,0.7,0,1,0c0.4,0,0.8,0,1.2,0
				c0.3,0,0.6,0,0.9,0.1c1.6,0.1,3.2,0.3,4.9,0.6c0.2,0,0.4,0.1,0.6,0.1c0.5,0.1,0.9,0.2,1.3,0.3c0.3,0.1,0.5,0.1,0.8,0.2
				c0.4,0.1,0.9,0.2,1.3,0.3c0.3,0.1,0.5,0.1,0.8,0.2c0.4,0.1,0.9,0.3,1.3,0.4c0.3,0.1,0.5,0.2,0.8,0.3c0.4,0.1,0.8,0.3,1.3,0.4
				c0.3,0.1,0.5,0.2,0.8,0.3c0.4,0.2,0.8,0.3,1.3,0.5c0.3,0.1,0.5,0.2,0.8,0.3c0.4,0.2,0.9,0.4,1.3,0.6c0.2,0.1,0.5,0.2,0.7,0.3
				c0.4,0.2,0.9,0.4,1.3,0.7c0.2,0.1,0.4,0.2,0.6,0.3c1.7,0.9,3.4,2,5,3.2c2,1.5,3.9,3.1,5.8,4.9
				C428.9,446.2,428.9,476.6,410.2,495.4z"/>
			<g>
				<path fill="#F7B0C1" d="M429.3,511.4c37.3-37.3,37.3-97.6,0-134.9c-37.3-37.3-97.6-37.3-134.9,0s-37.3,97.6,0,134.9
					C331.7,548.6,392.1,548.6,429.3,511.4z M397.6,479.6c-19.7,19.7-51.6,19.7-71.3,0c-19.7-19.7-19.7-51.6,0-71.3
					c19.7-19.7,51.6-19.7,71.3,0C417.2,428,417.2,459.9,397.6,479.6z"/>
				<path fill="#F06491" d="M321.1,473.5c-2.1-1.5-4.1-3.3-6-5.2c-19.7-19.7-19.7-51.6,0-71.3c19.7-19.7,51.6-19.7,71.3,0
					c1.9,1.9,3.6,3.9,5.2,6c-19.7-14.3-47.5-12.6-65.3,5.2C308.4,426.1,306.7,453.8,321.1,473.5z"/>
				<path fill="#F06491" d="M294.4,511.4c-1.9-1.9-3.7-3.9-5.4-5.9c37.5,31.8,93.7,30,129-5.4s37.1-91.6,5.4-129
					c2,1.7,4,3.5,5.9,5.4c37.3,37.3,37.3,97.6,0,134.9S331.7,548.6,294.4,511.4z"/>
				<path fill="#F06491" d="M272.9,409.5c5.4,0.5,10.2,2,13.9,4.5c0,0,10.8-14.2,14.5-11.1c3.7,3.1-5,18.5-5,18.5s7.7,5.5,7.7,25.8
					s-7.7,25.8-7.7,25.8s8.7,15.4,5,18.5c-3.7,3.1-14.5-11.1-14.5-11.1c-3.1,2.1-6.9,3.5-11.3,4.2
					C264.5,461,263.6,433.7,272.9,409.5z"/>
				<g>
					<path fill="#F7B0C1" d="M277.3,477.2c-20.6,14.2-75.4-5.5-76.1-33.2c0.7-27.7,55.5-47.4,76.1-33.2c0,0,10.8-14.2,14.5-11.1
						c3.7,3.1-5,18.5-5,18.5s7.7,5.5,7.7,25.8c0,20.3-7.7,25.8-7.7,25.8s8.7,15.4,5,18.5C288,491.3,277.3,477.2,277.3,477.2z"/>
					<path fill="#92278F" d="M239.1,442.4c-0.3-20.7,81.7-28.6,81.3,0C320,471,239.4,463.1,239.1,442.4z"/>
					<path fill="#FFE987" d="M267,441c-0.7-5.6-6.4-9.3-11.9-7.8c-9.3,2.5-23,6.9-22.1,10.9c1,4.2,14.9,6.6,23.4,7.6
						c6.1,0.8,11.4-4.3,10.7-10.5C267,441.3,267,441.1,267,441z"/>
				</g>
			</g>
		</g>
	</g>
</g>
</svg>
