<?xml version="1.0" encoding="UTF-8"?>
<!DOCTYPE svg PUBLIC "-//W3C//DTD SVG 1.0//EN" "http://www.w3.org/TR/2001/REC-SVG-20010904/DTD/svg10.dtd">
<!-- Creator: CorelDRAW 2019 (64 Bit) -->
<svg xmlns="http://www.w3.org/2000/svg" xml:space="preserve" width="1920px" height="290px" version="1.0" style="shape-rendering:geometricPrecision; text-rendering:geometricPrecision; image-rendering:optimizeQuality; fill-rule:evenodd; clip-rule:evenodd"
viewBox="0 0 1910.76 288.45"
 xmlns:xlink="http://www.w3.org/1999/xlink">
 <defs>
  <style type="text/css">
   <![CDATA[
    .str0 {stroke:#282829;stroke-width:5.4;stroke-miterlimit:22.9256}
    .str1 {stroke:#373435;stroke-width:0.78;stroke-miterlimit:22.9256}
    .fil1 {fill:none}
    .fil2 {fill:none;fill-rule:nonzero}
    .fil3 {fill:#2E8042}
    .fil6 {fill:#373435;fill-rule:nonzero}
    .fil4 {fill:#F58634;fill-rule:nonzero}
    .fil5 {fill:#ED3237;fill-rule:nonzero}
    .fil0 {fill:#282829;fill-rule:nonzero}
   ]]>
  </style>
 </defs>
 <g id="Camada_x0020_1">
  <metadata id="CorelCorpID_0Corel-Layer"/>
  <g>
   <path class="fil0" d="M0 203.24l50.4 -21.6 0 0 -0.65 1.35 -0.61 1.35 -0.57 1.35 -0.53 1.35 -0.48 1.35 -0.45 1.35 -0.4 1.35 -0.36 1.35 -0.31 1.35 -0.28 1.35 -0.23 1.35 -0.19 1.35 -0.15 1.35 -0.1 1.35 -0.06 1.35 -0.03 1.35 0.03 1.35 0.06 1.35 0.1 1.35 0.15 1.35 0.19 1.35 0.23 1.35 0.28 1.35 0.31 1.35 0.36 1.35 0.4 1.35 0.45 1.35 0.48 1.35 0.53 1.35 0.57 1.35 0.61 1.35 0.65 1.35 -50.4 -21.6zm1885.42 3.6l-1860.09 0 0 -7.2 1860.09 0 0 7.2zm25.34 -3.6l-50.41 21.6 0.66 -1.35 0.61 -1.35 0.57 -1.35 0.52 -1.35 0.49 -1.35 0.44 -1.35 0.4 -1.35 0.36 -1.35 0.32 -1.35 0.27 -1.35 0.23 -1.35 0.19 -1.35 0.15 -1.35 0.11 -1.35 0.06 -1.35 0.02 -1.35 -0.02 -1.35 -0.06 -1.35 -0.11 -1.35 -0.15 -1.35 -0.19 -1.35 -0.23 -1.35 -0.27 -1.35 -0.32 -1.35 -0.36 -1.35 -0.4 -1.35 -0.44 -1.35 -0.49 -1.35 -0.52 -1.35 -0.57 -1.35 -0.61 -1.35 -0.66 -1.35 0 0 50.41 21.6z"/>
  </g>
  <line class="fil1 str0" x1="92.87" y1="184.93" x2="92.87" y2= "221.55" />
  <line class="fil1 str0" x1="383.22" y1="184.93" x2="383.22" y2= "221.55" />
  <polygon class="fil0" points="625.39,268.64 659.26,268.64 659.26,271.74 625.39,271.74 "/>
  <path id="1" class="fil0" d="M705.44 287.12l-30.75 0 0 -4.3 16.25 -18.05c2.41,-2.73 4.07,-4.95 4.98,-6.66 0.91,-1.72 1.37,-3.49 1.37,-5.31 0,-2.46 -0.74,-4.46 -2.23,-6.03 -1.48,-1.57 -3.45,-2.36 -5.93,-2.36 -2.97,0 -5.27,0.85 -6.91,2.53 -1.65,1.7 -2.46,4.05 -2.46,7.06l-5.97 0c0,-4.32 1.39,-7.81 4.18,-10.48 2.78,-2.66 6.5,-3.99 11.16,-3.99 4.36,0 7.81,1.14 10.34,3.43 2.55,2.29 3.81,5.34 3.81,9.14 0,4.62 -2.94,10.12 -8.83,16.51l-12.57 13.63 23.56 0 0 4.88z"/>
  <polygon id="2" class="fil2 str1" points="625.39,268.64 659.26,268.64 659.26,271.74 625.39,271.74 "/>
  <path id="3" class="fil2 str1" d="M705.44 287.12l-30.75 0 0 -4.3 16.25 -18.05c2.41,-2.73 4.07,-4.95 4.98,-6.66 0.91,-1.72 1.37,-3.49 1.37,-5.31 0,-2.46 -0.74,-4.46 -2.23,-6.03 -1.48,-1.57 -3.45,-2.36 -5.93,-2.36 -2.97,0 -5.27,0.85 -6.91,2.53 -1.65,1.7 -2.46,4.05 -2.46,7.06l-5.97 0c0,-4.32 1.39,-7.81 4.18,-10.48 2.78,-2.66 6.5,-3.99 11.16,-3.99 4.36,0 7.81,1.14 10.34,3.43 2.55,2.29 3.81,5.34 3.81,9.14 0,4.62 -2.94,10.12 -8.83,16.51l-12.57 13.63 23.56 0 0 4.88z"/>
  <polygon class="fil0" points="480.3,268.64 514.16,268.64 514.16,271.74 480.3,271.74 "/>
  <path id="1" class="fil0" d="M538.28 260.78l4.47 0c2.82,-0.04 5.03,-0.79 6.64,-2.23 1.61,-1.44 2.42,-3.4 2.42,-5.85 0,-5.52 -2.74,-8.29 -8.22,-8.29 -2.57,0 -4.63,0.74 -6.17,2.22 -1.54,1.47 -2.31,3.43 -2.31,5.86l-5.95 0c0,-3.72 1.35,-6.81 4.07,-9.27 2.71,-2.46 6.17,-3.69 10.36,-3.69 4.42,0 7.9,1.18 10.41,3.52 2.51,2.35 3.77,5.61 3.77,9.79 0,2.05 -0.66,4.03 -1.98,5.94 -1.32,1.92 -3.13,3.36 -5.4,4.3 2.58,0.82 4.57,2.17 5.98,4.06 1.41,1.88 2.1,4.19 2.1,6.92 0,4.2 -1.37,7.55 -4.12,10.01 -2.75,2.48 -6.33,3.71 -10.73,3.71 -4.4,0 -7.98,-1.19 -10.75,-3.58 -2.76,-2.38 -4.14,-5.53 -4.14,-9.45l5.99 0c0,2.48 0.82,4.45 2.42,5.92 1.62,1.49 3.78,2.23 6.48,2.23 2.88,0 5.08,-0.75 6.61,-2.26 1.52,-1.5 2.29,-3.65 2.29,-6.46 0,-2.71 -0.85,-4.8 -2.52,-6.26 -1.67,-1.46 -4.09,-2.21 -7.25,-2.25l-4.47 0 0 -4.89z"/>
  <polygon id="2" class="fil2 str1" points="480.3,268.64 514.16,268.64 514.16,271.74 480.3,271.74 "/>
  <path id="3" class="fil2 str1" d="M538.28 260.78l4.47 0c2.82,-0.04 5.03,-0.79 6.64,-2.23 1.61,-1.44 2.42,-3.4 2.42,-5.85 0,-5.52 -2.74,-8.29 -8.22,-8.29 -2.57,0 -4.63,0.74 -6.17,2.22 -1.54,1.47 -2.31,3.43 -2.31,5.86l-5.95 0c0,-3.72 1.35,-6.81 4.07,-9.27 2.71,-2.46 6.17,-3.69 10.36,-3.69 4.42,0 7.9,1.18 10.41,3.52 2.51,2.35 3.77,5.61 3.77,9.79 0,2.05 -0.66,4.03 -1.98,5.94 -1.32,1.92 -3.13,3.36 -5.4,4.3 2.58,0.82 4.57,2.17 5.98,4.06 1.41,1.88 2.1,4.19 2.1,6.92 0,4.2 -1.37,7.55 -4.12,10.01 -2.75,2.48 -6.33,3.71 -10.73,3.71 -4.4,0 -7.98,-1.19 -10.75,-3.58 -2.76,-2.38 -4.14,-5.53 -4.14,-9.45l5.99 0c0,2.48 0.82,4.45 2.42,5.92 1.62,1.49 3.78,2.23 6.48,2.23 2.88,0 5.08,-0.75 6.61,-2.26 1.52,-1.5 2.29,-3.65 2.29,-6.46 0,-2.71 -0.85,-4.8 -2.52,-6.26 -1.67,-1.46 -4.09,-2.21 -7.25,-2.25l-4.47 0 0 -4.89z"/>
  <polygon class="fil0" points="337.68,268.64 371.54,268.64 371.54,271.74 337.68,271.74 "/>
  <path id="1" class="fil0" d="M412.15 271.34l6.5 0 0 4.89 -6.5 0 0 10.89 -5.99 0 0 -10.89 -21.38 0 0 -3.53 21.01 -32.51 6.36 0 0 31.15zm-20.59 0l14.6 0 0 -23 -0.72 1.29 -13.88 21.71z"/>
  <polygon id="2" class="fil2 str1" points="337.68,268.64 371.54,268.64 371.54,271.74 337.68,271.74 "/>
  <path id="3" class="fil2 str1" d="M412.15 271.34l6.5 0 0 4.89 -6.5 0 0 10.89 -5.99 0 0 -10.89 -21.38 0 0 -3.53 21.01 -32.51 6.36 0 0 31.15zm-20.59 0l14.6 0 0 -23 -0.72 1.29 -13.88 21.71z"/>
  <polygon class="fil0" points="192.71,268.64 226.58,268.64 226.58,271.74 192.71,271.74 "/>
  <path id="1" class="fil0" d="M244.76 263.61l2.37 -23.42 24.05 0 0 5.54 -18.98 0 -1.42 12.79c2.3,-1.36 4.91,-2.03 7.83,-2.03 4.28,0 7.68,1.41 10.19,4.24 2.52,2.83 3.77,6.64 3.77,11.45 0,4.84 -1.31,8.65 -3.92,11.43 -2.6,2.78 -6.26,4.17 -10.94,4.17 -4.15,0 -7.53,-1.16 -10.16,-3.45 -2.62,-2.3 -4.11,-5.48 -4.47,-9.54l5.64 0c0.36,2.68 1.32,4.71 2.87,6.06 1.54,1.36 3.59,2.05 6.12,2.05 2.77,0 4.95,-0.95 6.53,-2.84 1.57,-1.88 2.37,-4.49 2.37,-7.82 0,-3.14 -0.86,-5.65 -2.57,-7.55 -1.7,-1.9 -3.98,-2.85 -6.82,-2.85 -2.59,0 -4.64,0.57 -6.11,1.71l-1.59 1.29 -4.76 -1.23z"/>
  <polygon id="2" class="fil2 str1" points="192.71,268.64 226.58,268.64 226.58,271.74 192.71,271.74 "/>
  <path id="3" class="fil2 str1" d="M244.76 263.61l2.37 -23.42 24.05 0 0 5.54 -18.98 0 -1.42 12.79c2.3,-1.36 4.91,-2.03 7.83,-2.03 4.28,0 7.68,1.41 10.19,4.24 2.52,2.83 3.77,6.64 3.77,11.45 0,4.84 -1.31,8.65 -3.92,11.43 -2.6,2.78 -6.26,4.17 -10.94,4.17 -4.15,0 -7.53,-1.16 -10.16,-3.45 -2.62,-2.3 -4.11,-5.48 -4.47,-9.54l5.64 0c0.36,2.68 1.32,4.71 2.87,6.06 1.54,1.36 3.59,2.05 6.12,2.05 2.77,0 4.95,-0.95 6.53,-2.84 1.57,-1.88 2.37,-4.49 2.37,-7.82 0,-3.14 -0.86,-5.65 -2.57,-7.55 -1.7,-1.9 -3.98,-2.85 -6.82,-2.85 -2.59,0 -4.64,0.57 -6.11,1.71l-1.59 1.29 -4.76 -1.23z"/>
  <polygon class="fil0" points="57.22,268.64 91.08,268.64 91.08,271.74 57.22,271.74 "/>
  <path id="1" class="fil0" d="M129.91 240.19l0 5.08 -1.09 0c-4.64,0.09 -8.34,1.45 -11.09,4.12 -2.75,2.66 -4.34,6.4 -4.77,11.23 2.48,-2.84 5.85,-4.26 10.12,-4.26 4.08,0 7.35,1.44 9.79,4.32 2.43,2.88 3.65,6.59 3.65,11.15 0,4.83 -1.32,8.7 -3.95,11.6 -2.62,2.9 -6.16,4.35 -10.58,4.35 -4.49,0 -8.14,-1.73 -10.92,-5.17 -2.8,-3.46 -4.19,-7.89 -4.19,-13.32l0 -2.29c0,-8.64 1.83,-15.24 5.52,-19.8 3.68,-4.57 9.17,-6.9 16.46,-7.01l1.05 0zm-7.82 21.25c-2.05,0 -3.93,0.61 -5.64,1.83 -1.72,1.21 -2.92,2.74 -3.58,4.58l0 2.17c0,3.84 0.87,6.93 2.61,9.29 1.74,2.34 3.9,3.52 6.51,3.52 2.69,0 4.8,-0.98 6.33,-2.95 1.54,-1.96 2.31,-4.53 2.31,-7.71 0,-3.2 -0.78,-5.79 -2.35,-7.77 -1.55,-1.97 -3.61,-2.96 -6.19,-2.96z"/>
  <polygon id="2" class="fil2 str1" points="57.22,268.64 91.08,268.64 91.08,271.74 57.22,271.74 "/>
  <path id="3" class="fil2 str1" d="M129.91 240.19l0 5.08 -1.09 0c-4.64,0.09 -8.34,1.45 -11.09,4.12 -2.75,2.66 -4.34,6.4 -4.77,11.23 2.48,-2.84 5.85,-4.26 10.12,-4.26 4.08,0 7.35,1.44 9.79,4.32 2.43,2.88 3.65,6.59 3.65,11.15 0,4.83 -1.32,8.7 -3.95,11.6 -2.62,2.9 -6.16,4.35 -10.58,4.35 -4.49,0 -8.14,-1.73 -10.92,-5.17 -2.8,-3.46 -4.19,-7.89 -4.19,-13.32l0 -2.29c0,-8.64 1.83,-15.24 5.52,-19.8 3.68,-4.57 9.17,-6.9 16.46,-7.01l1.05 0zm-7.82 21.25c-2.05,0 -3.93,0.61 -5.64,1.83 -1.72,1.21 -2.92,2.74 -3.58,4.58l0 2.17c0,3.84 0.87,6.93 2.61,9.29 1.74,2.34 3.9,3.52 6.51,3.52 2.69,0 4.8,-0.98 6.33,-2.95 1.54,-1.96 2.31,-4.53 2.31,-7.71 0,-3.2 -0.78,-5.79 -2.35,-7.77 -1.55,-1.97 -3.61,-2.96 -6.19,-2.96z"/>
  <polygon class="fil0" points="760.48,267.03 794.34,267.03 794.34,270.13 760.48,270.13 "/>
  <polygon id="1" class="fil0" points="829.38,285.51 823.38,285.51 823.38,245.78 811.36,250.19 811.36,244.78 828.44,238.38 829.38,238.38 "/>
  <polygon id="2" class="fil2 str1" points="760.48,267.03 794.34,267.03 794.34,270.13 760.48,270.13 "/>
  <polygon id="3" class="fil2 str1" points="829.38,285.51 823.38,285.51 823.38,245.78 811.36,250.19 811.36,244.78 828.44,238.38 829.38,238.38 "/>
  <path class="fil0" d="M970.65 263.88c0,6.99 -1.19,12.18 -3.58,15.58 -2.38,3.4 -6.11,5.09 -11.17,5.09 -5.02,0 -8.72,-1.66 -11.12,-4.98 -2.41,-3.32 -3.66,-8.28 -3.75,-14.88l0 -7.97c0,-6.91 1.19,-12.03 3.58,-15.39 2.39,-3.35 6.13,-5.03 11.22,-5.03 5.05,0 8.77,1.62 11.15,4.86 2.38,3.23 3.6,8.22 3.67,14.98l0 7.74zm-5.96 -8.18c0,-5.05 -0.71,-8.74 -2.13,-11.05 -1.42,-2.31 -3.66,-3.46 -6.73,-3.46 -3.06,0 -5.28,1.15 -6.68,3.45 -1.39,2.3 -2.11,5.83 -2.15,10.61l0 9.55c0,5.08 0.73,8.82 2.21,11.24 1.46,2.42 3.69,3.63 6.69,3.63 2.93,0 5.12,-1.14 6.55,-3.42 1.43,-2.28 2.17,-5.87 2.24,-10.77l0 -9.78z"/>
  <path id="1" class="fil2 str1" d="M970.65 263.88c0,6.99 -1.19,12.18 -3.58,15.58 -2.38,3.4 -6.11,5.09 -11.17,5.09 -5.02,0 -8.72,-1.66 -11.12,-4.98 -2.41,-3.32 -3.66,-8.28 -3.75,-14.88l0 -7.97c0,-6.91 1.19,-12.03 3.58,-15.39 2.39,-3.35 6.13,-5.03 11.22,-5.03 5.05,0 8.77,1.62 11.15,4.86 2.38,3.23 3.6,8.22 3.67,14.98l0 7.74zm-5.96 -8.18c0,-5.05 -0.71,-8.74 -2.13,-11.05 -1.42,-2.31 -3.66,-3.46 -6.73,-3.46 -3.06,0 -5.28,1.15 -6.68,3.45 -1.39,2.3 -2.11,5.83 -2.15,10.61l0 9.55c0,5.08 0.73,8.82 2.21,11.24 1.46,2.42 3.69,3.63 6.69,3.63 2.93,0 5.12,-1.14 6.55,-3.42 1.43,-2.28 2.17,-5.87 2.24,-10.77l0 -9.78z"/>
  <path class="fil0" d="M1261.92 287.12l-30.75 0 0 -4.3 16.25 -18.05c2.41,-2.73 4.07,-4.95 4.98,-6.66 0.92,-1.72 1.37,-3.49 1.37,-5.31 0,-2.46 -0.74,-4.46 -2.22,-6.03 -1.49,-1.57 -3.46,-2.36 -5.93,-2.36 -2.97,0 -5.27,0.85 -6.91,2.53 -1.65,1.7 -2.47,4.05 -2.47,7.06l-5.97 0c0,-4.32 1.4,-7.81 4.18,-10.48 2.78,-2.66 6.5,-3.99 11.17,-3.99 4.35,0 7.81,1.14 10.34,3.43 2.54,2.29 3.8,5.34 3.8,9.14 0,4.62 -2.93,10.12 -8.83,16.51l-12.56 13.63 23.55 0 0 4.88z"/>
  <path id="1" class="fil2 str1" d="M1261.92 287.12l-30.75 0 0 -4.3 16.25 -18.05c2.41,-2.73 4.07,-4.95 4.98,-6.66 0.92,-1.72 1.37,-3.49 1.37,-5.31 0,-2.46 -0.74,-4.46 -2.22,-6.03 -1.49,-1.57 -3.46,-2.36 -5.93,-2.36 -2.97,0 -5.27,0.85 -6.91,2.53 -1.65,1.7 -2.47,4.05 -2.47,7.06l-5.97 0c0,-4.32 1.4,-7.81 4.18,-10.48 2.78,-2.66 6.5,-3.99 11.17,-3.99 4.35,0 7.81,1.14 10.34,3.43 2.54,2.29 3.8,5.34 3.8,9.14 0,4.62 -2.93,10.12 -8.83,16.51l-12.56 13.63 23.55 0 0 4.88z"/>
  <path class="fil0" d="M1384.71 261.06l4.48 0c2.82,-0.04 5.03,-0.79 6.64,-2.23 1.61,-1.44 2.42,-3.4 2.42,-5.85 0,-5.52 -2.74,-8.28 -8.22,-8.28 -2.58,0 -4.63,0.73 -6.17,2.21 -1.54,1.47 -2.31,3.43 -2.31,5.86l-5.96 0c0,-3.72 1.36,-6.81 4.07,-9.27 2.72,-2.46 6.18,-3.69 10.37,-3.69 4.42,0 7.9,1.18 10.4,3.52 2.52,2.36 3.78,5.61 3.78,9.79 0,2.05 -0.66,4.03 -1.98,5.94 -1.32,1.92 -3.13,3.36 -5.4,4.3 2.58,0.82 4.57,2.17 5.98,4.06 1.41,1.88 2.1,4.19 2.1,6.92 0,4.2 -1.37,7.55 -4.12,10.01 -2.75,2.48 -6.33,3.71 -10.73,3.71 -4.4,0 -7.99,-1.19 -10.75,-3.58 -2.76,-2.38 -4.14,-5.53 -4.14,-9.44l5.99 0c0,2.47 0.81,4.44 2.42,5.91 1.62,1.49 3.78,2.23 6.48,2.23 2.88,0 5.08,-0.75 6.61,-2.26 1.52,-1.49 2.29,-3.65 2.29,-6.46 0,-2.71 -0.85,-4.8 -2.52,-6.26 -1.67,-1.46 -4.09,-2.21 -7.25,-2.25l-4.48 0 0 -4.89z"/>
  <path id="1" class="fil2 str1" d="M1384.71 261.06l4.48 0c2.82,-0.04 5.03,-0.79 6.64,-2.23 1.61,-1.44 2.42,-3.4 2.42,-5.85 0,-5.52 -2.74,-8.28 -8.22,-8.28 -2.58,0 -4.63,0.73 -6.17,2.21 -1.54,1.47 -2.31,3.43 -2.31,5.86l-5.96 0c0,-3.72 1.36,-6.81 4.07,-9.27 2.72,-2.46 6.18,-3.69 10.37,-3.69 4.42,0 7.9,1.18 10.4,3.52 2.52,2.36 3.78,5.61 3.78,9.79 0,2.05 -0.66,4.03 -1.98,5.94 -1.32,1.92 -3.13,3.36 -5.4,4.3 2.58,0.82 4.57,2.17 5.98,4.06 1.41,1.88 2.1,4.19 2.1,6.92 0,4.2 -1.37,7.55 -4.12,10.01 -2.75,2.48 -6.33,3.71 -10.73,3.71 -4.4,0 -7.99,-1.19 -10.75,-3.58 -2.76,-2.38 -4.14,-5.53 -4.14,-9.44l5.99 0c0,2.47 0.81,4.44 2.42,5.91 1.62,1.49 3.78,2.23 6.48,2.23 2.88,0 5.08,-0.75 6.61,-2.26 1.52,-1.49 2.29,-3.65 2.29,-6.46 0,-2.71 -0.85,-4.8 -2.52,-6.26 -1.67,-1.46 -4.09,-2.21 -7.25,-2.25l-4.48 0 0 -4.89z"/>
  <path class="fil0" d="M1547.93 271.3l6.5 0 0 4.88 -6.5 0 0 10.89 -6 0 0 -10.89 -21.37 0 0 -3.53 21.01 -32.51 6.36 0 0 31.16zm-20.59 0l14.59 0 0 -23.01 -0.71 1.29 -13.88 21.72z"/>
  <path id="1" class="fil2 str1" d="M1547.93 271.3l6.5 0 0 4.88 -6.5 0 0 10.89 -6 0 0 -10.89 -21.37 0 0 -3.53 21.01 -32.51 6.36 0 0 31.16zm-20.59 0l14.59 0 0 -23.01 -0.71 1.29 -13.88 21.72z"/>
  <path class="fil0" d="M1664.14 263.56l2.38 -23.42 24.05 0 0 5.55 -18.99 0 -1.42 12.78c2.3,-1.35 4.92,-2.03 7.83,-2.03 4.28,0 7.68,1.41 10.19,4.24 2.52,2.83 3.77,6.64 3.77,11.45 0,4.84 -1.31,8.65 -3.91,11.43 -2.61,2.79 -6.26,4.17 -10.95,4.17 -4.15,0 -7.52,-1.15 -10.15,-3.45 -2.62,-2.3 -4.12,-5.48 -4.48,-9.54l5.64 0c0.37,2.68 1.32,4.71 2.87,6.06 1.54,1.36 3.59,2.05 6.12,2.05 2.77,0 4.95,-0.95 6.54,-2.84 1.57,-1.88 2.36,-4.49 2.36,-7.82 0,-3.14 -0.86,-5.65 -2.56,-7.55 -1.71,-1.9 -3.98,-2.85 -6.82,-2.85 -2.6,0 -4.65,0.57 -6.12,1.71l-1.58 1.29 -4.77 -1.23z"/>
  <path id="1" class="fil2 str1" d="M1664.14 263.56l2.38 -23.42 24.05 0 0 5.55 -18.99 0 -1.42 12.78c2.3,-1.35 4.92,-2.03 7.83,-2.03 4.28,0 7.68,1.41 10.19,4.24 2.52,2.83 3.77,6.64 3.77,11.45 0,4.84 -1.31,8.65 -3.91,11.43 -2.61,2.79 -6.26,4.17 -10.95,4.17 -4.15,0 -7.52,-1.15 -10.15,-3.45 -2.62,-2.3 -4.12,-5.48 -4.48,-9.54l5.64 0c0.37,2.68 1.32,4.71 2.87,6.06 1.54,1.36 3.59,2.05 6.12,2.05 2.77,0 4.95,-0.95 6.54,-2.84 1.57,-1.88 2.36,-4.49 2.36,-7.82 0,-3.14 -0.86,-5.65 -2.56,-7.55 -1.71,-1.9 -3.98,-2.85 -6.82,-2.85 -2.6,0 -4.65,0.57 -6.12,1.71l-1.58 1.29 -4.77 -1.23z"/>
  <path class="fil0" d="M1826.32 239.81l0 5.08 -1.09 0c-4.65,0.09 -8.34,1.45 -11.09,4.12 -2.75,2.66 -4.35,6.4 -4.78,11.23 2.48,-2.84 5.86,-4.26 10.12,-4.26 4.09,0 7.35,1.44 9.79,4.33 2.44,2.87 3.66,6.58 3.66,11.14 0,4.83 -1.32,8.7 -3.95,11.61 -2.63,2.89 -6.16,4.34 -10.59,4.34 -4.48,0 -8.14,-1.73 -10.92,-5.17 -2.79,-3.45 -4.19,-7.89 -4.19,-13.32l0 -2.29c0,-8.64 1.84,-15.24 5.52,-19.8 3.69,-4.57 9.18,-6.9 16.46,-7.01l1.06 0zm-7.83 21.25c-2.04,0 -3.92,0.61 -5.64,1.83 -1.72,1.21 -2.91,2.74 -3.58,4.58l0 2.17c0,3.84 0.87,6.94 2.61,9.29 1.74,2.34 3.91,3.52 6.51,3.52 2.69,0 4.8,-0.98 6.33,-2.95 1.54,-1.96 2.31,-4.53 2.31,-7.71 0,-3.2 -0.78,-5.79 -2.34,-7.77 -1.55,-1.97 -3.62,-2.96 -6.2,-2.96z"/>
  <path id="1" class="fil2 str1" d="M1826.32 239.81l0 5.08 -1.09 0c-4.65,0.09 -8.34,1.45 -11.09,4.12 -2.75,2.66 -4.35,6.4 -4.78,11.23 2.48,-2.84 5.86,-4.26 10.12,-4.26 4.09,0 7.35,1.44 9.79,4.33 2.44,2.87 3.66,6.58 3.66,11.14 0,4.83 -1.32,8.7 -3.95,11.61 -2.63,2.89 -6.16,4.34 -10.59,4.34 -4.48,0 -8.14,-1.73 -10.92,-5.17 -2.79,-3.45 -4.19,-7.89 -4.19,-13.32l0 -2.29c0,-8.64 1.84,-15.24 5.52,-19.8 3.69,-4.57 9.18,-6.9 16.46,-7.01l1.06 0zm-7.83 21.25c-2.04,0 -3.92,0.61 -5.64,1.83 -1.72,1.21 -2.91,2.74 -3.58,4.58l0 2.17c0,3.84 0.87,6.94 2.61,9.29 1.74,2.34 3.91,3.52 6.51,3.52 2.69,0 4.8,-0.98 6.33,-2.95 1.54,-1.96 2.31,-4.53 2.31,-7.71 0,-3.2 -0.78,-5.79 -2.34,-7.77 -1.55,-1.97 -3.62,-2.96 -6.2,-2.96z"/>
  <polygon class="fil0" points="1100.35,283.26 1094.35,283.26 1094.35,243.54 1082.33,247.95 1082.33,242.54 1099.41,236.13 1100.35,236.13 "/>
  <polygon id="1" class="fil2 str1" points="1100.35,283.26 1094.35,283.26 1094.35,243.54 1082.33,247.95 1082.33,242.54 1099.41,236.13 1100.35,236.13 "/>
  <line class="fil1 str0" x1="521.94" y1="184.93" x2="521.94" y2= "221.55" />
  <line class="fil1 str0" x1="670.33" y1="184.93" x2="670.33" y2= "221.55" />
  <line class="fil1 str0" x1="812.59" y1="186.85" x2="812.59" y2= "223.47" />
  <line class="fil1 str0" x1="959.92" y1="184.93" x2="959.92" y2= "221.55" />
  <line class="fil1 str0" x1="1101.01" y1="184.93" x2="1101.01" y2= "221.55" />
  <line class="fil1 str0" x1="1246.19" y1="184.93" x2="1246.19" y2= "221.55" />
  <line class="fil1 str0" x1="1388.13" y1="179.53" x2="1388.13" y2= "216.15" />
  <line class="fil1 str0" x1="1533.31" y1="184.93" x2="1533.31" y2= "221.55" />
  <line class="fil1 str0" x1="1676.87" y1="184.93" x2="1676.87" y2= "221.55" />
  <line class="fil1 str0" x1="1820.43" y1="176.87" x2="1820.43" y2= "213.49" />
  <circle class="fil3" cx="812.59" cy="205.16" r="20.1"/>
  <circle class="fil3" cx="234.82" cy="204.85" r="20.1"/>
  <polygon class="fil4" points="666.73,96.78 128.36,96.78 128.36,137.11 0,68.55 128.36,0 128.36,40.33 666.73,40.33 "/>
  <polygon class="fil5" points="1253.25,96.78 1775.6,96.78 1775.6,137.11 1903.96,68.55 1775.6,0 1775.6,40.33 1253.25,40.33 "/>
  <polygon class="fil6" points="421.77,28.04 437.55,72.6 453.25,28.04 469.87,28.04 469.87,89.48 457.17,89.48 457.17,72.69 458.43,43.7 441.86,89.48 433.16,89.48 416.63,43.74 417.9,72.69 417.9,89.48 405.24,89.48 405.24,28.04 "/>
  <path id="1" class="fil6" d="M501.16 90.34c-6.7,0 -12.15,-2.06 -16.36,-6.16 -4.2,-4.11 -6.31,-9.58 -6.31,-16.42l0 -1.18c0,-4.58 0.9,-8.68 2.67,-12.3 1.77,-3.61 4.28,-6.41 7.53,-8.35 3.25,-1.96 6.96,-2.94 11.12,-2.94 6.25,0 11.16,1.97 14.74,5.91 3.59,3.94 5.37,9.53 5.37,16.76l0 4.98 -29.06 0c0.39,2.98 1.59,5.36 3.56,7.16 1.99,1.8 4.49,2.69 7.53,2.69 4.71,0 8.37,-1.7 11.02,-5.08l5.99 6.71c-1.83,2.58 -4.31,4.61 -7.43,6.05 -3.11,1.45 -6.58,2.17 -10.37,2.17zm-1.4 -37.5c-2.42,0 -4.37,0.82 -5.89,2.46 -1.49,1.65 -2.46,3.99 -2.88,7.05l16.95 0 0 -0.98c-0.05,-2.71 -0.77,-4.81 -2.19,-6.3 -1.41,-1.48 -3.39,-2.23 -5.99,-2.23z"/>
  <path id="2" class="fil6" d="M538.04 43.86l0.39 5.27c3.25,-4.09 7.63,-6.14 13.12,-6.14 4.84,0 8.44,1.43 10.8,4.26 2.36,2.84 3.57,7.09 3.63,12.73l0 29.5 -12.2 0 0 -29.25c0,-2.58 -0.56,-4.46 -1.68,-5.63 -1.13,-1.17 -3,-1.76 -5.62,-1.76 -3.43,0 -6,1.47 -7.72,4.39l0 32.25 -12.2 0 0 -45.62 11.48 0z"/>
  <path id="3" class="fil6" d="M573.29 66.25c0,-4.54 0.88,-8.57 2.63,-12.11 1.74,-3.54 4.24,-6.29 7.53,-8.24 3.27,-1.94 7.07,-2.91 11.4,-2.91 6.16,0 11.19,1.89 15.09,5.66 3.89,3.76 6.07,8.89 6.51,15.35l0.09 3.13c0,7.01 -1.96,12.63 -5.86,16.86 -3.92,4.23 -9.16,6.35 -15.74,6.35 -6.58,0 -11.84,-2.12 -15.76,-6.33 -3.93,-4.22 -5.89,-9.96 -5.89,-17.21l0 -0.55zm12.2 0.86c0,4.34 0.81,7.65 2.45,9.94 1.63,2.29 3.96,3.44 7,3.44 2.95,0 5.25,-1.14 6.91,-3.4 1.67,-2.26 2.49,-5.89 2.49,-10.87 0,-4.25 -0.82,-7.55 -2.49,-9.88 -1.66,-2.33 -3.99,-3.5 -7,-3.5 -2.98,0 -5.28,1.17 -6.91,3.49 -1.64,2.32 -2.45,5.92 -2.45,10.78z"/>
  <path id="4" class="fil6" d="M649.73 55.25c-1.65,-0.22 -3.11,-0.33 -4.38,-0.33 -4.62,0 -7.64,1.55 -9.07,4.68l0 29.88 -12.2 0 0 -45.62 11.53 0 0.33 5.41c2.44,-4.19 5.84,-6.28 10.16,-6.28 1.36,0 2.62,0.19 3.81,0.55l-0.18 11.71z"/>
  <polygon class="fil6" points="1278.35,28.04 1294.13,72.6 1309.83,28.04 1326.45,28.04 1326.45,89.48 1313.74,89.48 1313.74,72.69 1315.01,43.7 1298.44,89.48 1289.74,89.48 1273.21,43.74 1274.47,72.69 1274.47,89.48 1261.82,89.48 1261.82,28.04 "/>
  <path id="1" class="fil6" d="M1363.15 89.48c-0.56,-1.1 -0.96,-2.45 -1.22,-4.08 -2.95,3.3 -6.8,4.94 -11.52,4.94 -4.47,0 -8.18,-1.29 -11.12,-3.89 -2.94,-2.59 -4.41,-5.86 -4.41,-9.8 0,-4.84 1.8,-8.56 5.39,-11.15 3.59,-2.59 8.77,-3.9 15.54,-3.93l5.61 0 0 -2.59c0,-2.11 -0.54,-3.78 -1.62,-5.03 -1.08,-1.25 -2.8,-1.89 -5.13,-1.89 -2.04,0 -3.66,0.49 -4.82,1.46 -1.17,0.96 -1.76,2.3 -1.76,3.99l-12.18 0c0,-2.64 0.8,-5.09 2.43,-7.32 1.64,-2.24 3.95,-4 6.93,-5.28 2.98,-1.28 6.32,-1.92 10.03,-1.92 5.64,0 10.1,1.41 13.4,4.24 3.31,2.83 4.96,6.79 4.96,11.92l0 19.79c0.03,4.32 0.64,7.6 1.82,9.82l0 0.72 -12.33 0zm-10.08 -8.47c1.8,0 3.46,-0.4 4.99,-1.2 1.51,-0.8 2.63,-1.88 3.36,-3.22l0 -7.85 -4.55 0c-6.1,0 -9.36,2.1 -9.74,6.32l-0.05 0.72c0,1.51 0.53,2.77 1.6,3.76 1.07,0.98 2.53,1.47 4.39,1.47z"/>
  <path id="2" class="fil6" d="M1395.89 89.48l-12.23 0 0 -45.62 12.23 0 0 45.62zm-12.95 -57.4c0,-1.82 0.6,-3.33 1.83,-4.51 1.22,-1.18 2.89,-1.77 5.01,-1.77 2.07,0 3.73,0.59 4.97,1.77 1.24,1.18 1.86,2.69 1.86,4.51 0,1.85 -0.62,3.38 -1.88,4.56 -1.25,1.18 -2.91,1.77 -4.95,1.77 -2.06,0 -3.71,-0.59 -4.97,-1.77 -1.25,-1.18 -1.87,-2.71 -1.87,-4.56z"/>
  <path id="3" class="fil6" d="M1404.02 66.25c0,-4.54 0.88,-8.57 2.62,-12.11 1.75,-3.54 4.25,-6.29 7.54,-8.24 3.26,-1.94 7.07,-2.91 11.4,-2.91 6.16,0 11.19,1.89 15.09,5.66 3.89,3.76 6.06,8.89 6.51,15.35l0.09 3.13c0,7.01 -1.96,12.63 -5.86,16.86 -3.92,4.23 -9.16,6.35 -15.74,6.35 -6.58,0 -11.84,-2.12 -15.76,-6.33 -3.93,-4.22 -5.89,-9.96 -5.89,-17.21l0 -0.55zm12.2 0.86c0,4.34 0.81,7.65 2.45,9.94 1.63,2.29 3.96,3.44 7,3.44 2.95,0 5.25,-1.14 6.91,-3.4 1.67,-2.26 2.49,-5.89 2.49,-10.87 0,-4.25 -0.82,-7.55 -2.49,-9.88 -1.66,-2.33 -3.99,-3.5 -7,-3.5 -2.98,0 -5.28,1.17 -6.91,3.49 -1.64,2.32 -2.45,5.92 -2.45,10.78z"/>
  <path id="4" class="fil6" d="M1480.46 55.25c-1.66,-0.22 -3.11,-0.33 -4.38,-0.33 -4.62,0 -7.64,1.55 -9.07,4.68l0 29.88 -12.2 0 0 -45.62 11.52 0 0.33 5.41c2.45,-4.19 5.85,-6.28 10.17,-6.28 1.36,0 2.62,0.19 3.8,0.55l-0.17 11.71z"/>
 </g>
</svg>
