<svg height="512" viewBox="0 0 64 64" width="512" xmlns="http://www.w3.org/2000/svg"><g id="Twotone"><g id="Color_copy_2" data-name="Color copy 2"><g><path d="m51.608 37.254 9.392-5.254-9.392-5.254 5.507-9.246-10.761.146.146-10.761-9.246 5.507-6.254-9.392-4.254 9.392-9.246-5.507 1.146 11.761-10.761-3.146 5.507 11.246-10.392 5.254 9.392 5.254-5.507 9.246 10.761-.146-.146 10.761 9.246-5.507 6.254 8.392 4.254-8.392 9.246 5.507-.146-9.761 10.761.146zm-25.735 4.446h-3.746l-6-16 3.746-1.4 4.127 11 4.127-11 3.746 1.4zm16.127-10.7a6 6 0 1 1 -6 6h4a2 2 0 1 0 2-2 6 6 0 1 1 6-6h-4a2 2 0 1 0 -2 2z" fill="#a8dba8"/><path d="m28 3h-18a7 7 0 1 0 6.317 10h5.366a7 7 0 1 0 6.317-10z" fill="#79bd9a"/><path d="m54 47h-18a7 7 0 1 0 6.317 10h5.366a7 7 0 1 0 6.317-10z" fill="#79bd9a"/><g fill="#cff09e"><path d="m21.812 36.2-4.151-11.073-1.534.575 6 16h3.746l.757-2.019a5.4 5.4 0 0 1 -4.818-3.483z"/><path d="m43 41a6 6 0 0 1 -5.65-4h-1.35a6 6 0 0 0 11.771 1.624 5.987 5.987 0 0 1 -4.771 2.376z"/></g></g></g><g id="Stroke_Close_copy" data-name="Stroke Close copy"><g fill="#3b8686"><path d="m32.783 25.288a1 1 0 0 0 -.559-.522l-3.746-1.4a1 1 0 0 0 -1.288.586l-3.19 8.504-3.19-8.509a1 1 0 0 0 -1.288-.586l-3.746 1.4a1 1 0 0 0 -.586 1.287l6 16a1 1 0 0 0 .937.649h3.746a1 1 0 0 0 .937-.649l6-16a1 1 0 0 0 -.027-.76zm-7.603 15.412h-2.36l-5.406-14.412 1.874-.7 3.775 10.07a1 1 0 0 0 1.874 0l3.775-10.07 1.874.7z"/><path d="m42 38a1 1 0 0 1 -1-1 1 1 0 0 0 -1-1h-4a1 1 0 0 0 -1 1 7 7 0 1 0 7-7 1 1 0 1 1 1-1 1 1 0 0 0 1 1h4a1 1 0 0 0 1-1 7 7 0 1 0 -7 7 1 1 0 0 1 0 2zm0-4a5 5 0 1 1 4.9-6h-2.07a3 3 0 1 0 -2.83 4 5 5 0 1 1 -4.9 6h2.07a3 3 0 1 0 2.83-4z"/><path d="m57.949 47.052.051-.026-5.041-9.38 8.533-4.773a1 1 0 0 0 0-1.746l-8.495-4.752 4.982-8.363a1 1 0 0 0 .002-1.012 1.059 1.059 0 0 0 -.879-.5l-9.734.132.132-9.732a1 1 0 0 0 -1.512-.873l-8.428 5.02-1.709-2.566a8.01 8.01 0 0 0 -7.851-6.481h-18a8 8 0 0 0 -2.153 15.7l4.213 8.6-9.511 4.807a1 1 0 0 0 -.037 1.766l8.495 4.752-4.982 8.363a1 1 0 0 0 .875 1.512l9.734-.132-.134 9.732a1 1 0 0 0 1.512.873l8.471-5.045 1.6 2.144a7.988 7.988 0 0 0 14.837 2.928h4.16a7.995 7.995 0 1 0 10.869-10.948zm-53.949-37.052a6.006 6.006 0 0 1 6-6h18a6 6 0 1 1 -5.414 8.57 1 1 0 0 0 -.9-.57h-5.369a1 1 0 0 0 -.9.57 6 6 0 0 1 -11.417-2.57zm13.507 7.271-2.807-.821a8.021 8.021 0 0 0 2.22-2.45h.268zm8.727 33.478-7.71 4.592.122-8.973a1 1 0 0 0 -.293-.721 1.1 1.1 0 0 0 -.721-.293l-8.974.122 4.593-7.71a1 1 0 0 0 -.371-1.385l-7.752-4.337 8.715-4.4a1 1 0 0 0 .447-1.333l-4.074-8.321a7.841 7.841 0 0 0 1.767-.245l6.382 1.865a1 1 0 0 0 1.276-1.057l-.441-4.553h1.88a7.987 7.987 0 0 0 14.672-2.06l.67 1.006a1 1 0 0 0 1.344.3l7.71-4.592-.122 8.973a1 1 0 0 0 .293.721.959.959 0 0 0 .721.293l8.974-.122-4.593 7.71a1 1 0 0 0 .371 1.385l7.832 4.386-7.832 4.381a1 1 0 0 0 -.392 1.347l4.5 8.377a7.922 7.922 0 0 0 -1.228-.105h-18a8.007 8.007 0 0 0 -7.731 5.978l-.721-.967a1 1 0 0 0 -1.314-.262zm27.766 9.251a6.027 6.027 0 0 1 -5.414-3.43 1 1 0 0 0 -.9-.57h-5.369a1 1 0 0 0 -.9.57 6 6 0 1 1 -5.417-8.57h18a6 6 0 0 1 0 12z"/><path d="m38.5 53h-1.5v-1.5a1 1 0 0 0 -2 0v1.5h-1.5a1 1 0 0 0 0 2h1.5v1.5a1 1 0 0 0 2 0v-1.5h1.5a1 1 0 0 0 0-2z"/><circle cx="54" cy="51" r="1"/><circle cx="54" cy="56" r="1"/><circle cx="51.5" cy="53.5" r="1"/><circle cx="56.5" cy="53.5" r="1"/><path d="m11 12.5v-1.5h1.5a1 1 0 0 0 0-2h-1.5v-1.5a1 1 0 0 0 -2 0v1.5h-1.5a1 1 0 0 0 0 2h1.5v1.5a1 1 0 0 0 2 0z"/><circle cx="28" cy="7" r="1"/><circle cx="28" cy="12" r="1"/><circle cx="25.5" cy="9.5" r="1"/><circle cx="30.5" cy="9.5" r="1"/></g></g></g></svg>